<svg width="104" height="105" viewBox="0 0 104 105" fill="none" xmlns="http://www.w3.org/2000/svg">
<g id="Group">
<g id="Group_2">
<path id="Vector" d="M62.5798 64.3601C63.0597 64.3254 63.6309 64.3139 63.928 64.7651C63.6081 64.5684 63.2425 64.4527 62.8655 64.4411L62.8997 64.6841C62.7741 64.6031 62.6712 64.4759 62.5798 64.3601Z" fill="#0093D8"/>
</g>
<g id="Group_3">
<path id="Vector_2" d="M69.6976 54.9297C71.4341 57.4407 73.2621 59.8938 75.0329 62.3816C75.547 63.0759 76.0155 63.7817 76.5524 64.4529C77.0208 64.4529 77.4893 64.4529 77.9691 64.4413C77.7863 64.0132 77.4778 63.6544 77.2036 63.2842C75.5813 61.0278 73.959 58.783 72.3253 56.5266C71.6398 55.7397 71.1143 54.8256 70.4973 53.9925C69.4691 52.5577 68.4294 51.1344 67.4012 49.6996C67.2984 49.5723 67.207 49.4334 67.0585 49.3409C66.5786 49.2946 66.1102 49.3409 65.6304 49.3293C66.6472 50.822 67.744 52.2568 68.7836 53.7379C69.0921 54.1429 69.3777 54.5595 69.6976 54.9297Z" fill="white"/>
<path id="Vector_3" d="M94.9462 26.476C91.6787 20.9912 87.383 16.1313 82.3447 12.2665C75.0671 6.64291 66.2358 3.09055 57.1303 2.18799C56.6505 2.09542 56.1478 2.14171 55.6679 2.02599C54.9025 1.97971 54.1256 2.02599 53.3601 1.93342C52.0349 1.80614 50.6982 1.945 49.3729 2.00285C48.6074 1.96814 47.842 2.15328 47.0765 2.14171C46.4367 2.26899 45.7855 2.3037 45.1457 2.37313C42.8722 2.72027 40.6101 3.15997 38.4051 3.80796C38.1424 3.86582 37.8682 3.94682 37.6168 4.03939C30.5221 6.19163 23.9186 9.96385 18.4233 14.9973C11.3399 21.4541 6.14167 29.982 3.65107 39.2853C1.2176 48.2993 1.309 57.9844 3.89099 66.9521C6.17594 74.8899 10.4259 82.2145 16.1269 88.139C20.0456 92.2005 24.6269 95.614 29.6538 98.1365C34.5779 100.636 39.9132 102.291 45.3742 103.008C46.8595 103.182 48.3332 103.378 49.8299 103.378C50.8581 103.506 51.8863 103.459 52.9146 103.459C53.5658 103.471 54.2056 103.332 54.8568 103.367C64.4878 102.858 73.9589 99.3978 81.7163 93.5774C88.834 88.2778 94.5235 81.0574 98.0309 72.8534C102.041 63.5386 103.138 52.9856 101.23 43.0112C100.122 37.1793 97.9738 31.5557 94.9462 26.476ZM33.7439 53.784C34.5893 52.3261 35.4461 50.8797 36.2801 49.4217C36.5543 48.9241 36.8285 48.4381 37.1256 47.9521C37.7996 46.8876 38.3823 45.7652 39.0564 44.7006C39.2734 44.3304 39.6847 44.1105 40.1189 44.1221C42.2096 44.1105 44.3003 44.1221 46.4025 44.1221C46.9851 44.1105 47.5335 44.3998 47.8991 44.8626C48.7217 45.8462 49.3957 46.957 50.2069 47.9521C50.5496 48.4381 50.8924 48.9241 51.2237 49.4101C52.4119 51.0764 53.6229 52.7195 54.8111 54.3857C54.971 54.6172 55.1995 54.8023 55.3937 55.0106C56.5362 56.943 57.9872 58.6671 59.221 60.5416C58.2956 59.9399 53.7029 57.1628 52.9717 56.6421C52.9031 55.9363 52.9831 55.2189 52.926 54.5015C52.3205 54.5015 51.7264 54.5015 51.1209 54.5015C51.1095 55.1379 51.1323 55.7859 51.1209 56.4338C51.1437 56.5958 51.0295 56.7116 50.9038 56.781C48.5046 58.2621 46.1054 59.7432 43.7062 61.2359C42.4267 62.0227 41.1357 62.798 39.8789 63.608C38.0624 61.2128 33.5496 55.0684 33.3554 54.5477C33.424 54.27 33.6068 54.0386 33.7439 53.784ZM65.6189 65.4825C64.8991 64.985 64.1565 64.499 63.4253 64.0246C63.0369 63.7816 62.8198 63.3419 62.5456 62.9716C63.9052 63.7468 65.1962 64.6494 66.5557 65.4362L66.59 65.6214C66.2587 65.6098 65.9045 65.6677 65.6189 65.4825ZM67.3669 66.6744C67.3669 67.6695 67.3669 68.653 67.3669 69.6482C66.9442 69.2316 66.6585 68.6993 66.2929 68.2365C65.9388 67.7158 65.5161 67.2414 65.2304 66.6744C65.9388 66.6744 66.6471 66.6744 67.3669 66.6744ZM63.4482 65.5288L63.551 65.6214C63.2425 65.633 62.9455 65.633 62.637 65.5635C62.3971 65.3784 62.1572 65.1933 61.9173 65.0081C60.7177 64.0824 59.5295 63.1451 58.3413 62.2079C56.5362 60.7846 54.7083 59.3729 52.926 57.9265C54.2398 58.7828 55.4737 59.7432 56.7647 60.6226C58.9583 62.3005 61.2546 63.8394 63.4482 65.5288ZM41.8897 64.5105C42.0611 64.3833 42.2324 64.256 42.4152 64.1403C45.3171 62.0806 48.1847 59.9515 51.1095 57.915C49.7842 59.0605 48.3675 60.0904 47.008 61.1896C45.1343 62.6707 43.2607 64.1403 41.3756 65.6098C41.0785 65.5982 40.7701 65.5867 40.473 65.5751C40.93 65.228 41.4099 64.8808 41.8897 64.5105ZM40.256 64.6494C40.3131 64.6147 45.8655 60.935 46.8595 60.2523C48.2304 59.3498 49.5785 58.4241 50.9838 57.5678C48.1619 59.6275 45.3057 61.6409 42.4724 63.6774C42.2439 63.8394 42.0154 64.0014 41.7983 64.1634C41.4327 64.418 41.0785 64.6841 40.7244 64.9387C40.6901 64.8577 40.6101 64.6957 40.5644 64.6147C40.4844 64.6263 40.3359 64.6494 40.256 64.6494ZM46.5738 61.9302C48.0819 60.7499 49.5443 59.5234 51.0866 58.3778C50.1269 59.3035 49.0987 60.1482 48.1162 61.0392C46.4482 62.5087 44.7802 63.9898 43.1121 65.4594C42.8151 65.7487 42.3695 65.5635 42.0154 65.5982C43.5006 64.3486 45.0658 63.1683 46.5738 61.9302ZM44.723 64.5568C46.094 63.3187 47.465 62.0806 48.8245 60.8425C49.6242 60.1482 50.3783 59.3961 51.2123 58.7481C48.9959 61.0508 46.7566 63.3303 44.5174 65.6098C44.2203 65.6098 43.9233 65.6098 43.6377 65.6098C43.9347 65.2048 44.3574 64.904 44.723 64.5568ZM45.8312 64.8693C47.6706 62.96 49.4529 60.9813 51.3265 59.1068C49.6128 61.3053 47.842 63.4576 46.094 65.6214C45.8084 65.6214 45.5113 65.6098 45.2257 65.5982C45.3742 65.309 45.6142 65.1007 45.8312 64.8693ZM46.9966 65.2395C48.4703 63.3071 49.9441 61.3748 51.4179 59.4424C51.2466 59.8936 50.9495 60.2755 50.721 60.6921C49.7042 62.3352 48.7103 63.9783 47.682 65.6098C47.3964 65.6098 47.1108 65.6098 46.8138 65.5982C46.8595 65.4825 46.928 65.3553 46.9966 65.2395ZM50.2183 62.1616C50.6525 61.3979 51.0523 60.6226 51.5208 59.8821C51.4751 60.1251 51.3837 60.3565 51.2923 60.5879C50.6182 62.2657 49.9441 63.9436 49.2701 65.6214C48.9616 65.6214 48.6417 65.6214 48.3332 65.6214C48.9045 64.4296 49.6014 63.3187 50.2183 62.1616ZM49.0644 66.3157C49.6814 66.3157 50.3097 66.3157 50.9267 66.3157C50.9267 66.6628 50.9267 67.0099 50.9038 67.3455C50.2983 67.3339 49.6928 67.3339 49.0873 67.3455C49.0644 66.9984 49.053 66.6512 49.0644 66.3157ZM49.9327 65.6098C50.0127 65.1701 50.1841 64.7535 50.3212 64.3254C50.7896 62.9022 51.2808 61.4905 51.7492 60.0788C51.9206 60.0788 52.092 60.0788 52.2748 60.0788C52.8917 61.9302 53.5201 63.77 54.1256 65.6214C52.7204 65.6214 51.3265 65.6214 49.9327 65.6098ZM53.0859 66.3157C53.7029 66.3041 54.3198 66.3157 54.9482 66.3157C54.9596 66.6628 54.9482 67.0099 54.9253 67.3571C54.3084 67.3108 53.6915 67.4149 53.0859 67.2876C53.0859 66.9636 53.0859 66.6397 53.0859 66.3157ZM54.7311 65.6098C53.9885 63.689 53.1659 61.8145 52.469 59.8821C52.629 60.0441 52.7203 60.2408 52.8346 60.4375C53.5544 61.7103 54.2627 62.9947 54.971 64.2791C55.2109 64.7188 55.4851 65.147 55.6679 65.6098C55.3595 65.6214 55.0396 65.6214 54.7311 65.6098ZM52.8917 60.0325C52.7775 59.8358 52.6632 59.6391 52.5718 59.4308C53.8742 61.0855 55.131 62.7749 56.4105 64.4411C56.6847 64.8345 57.0275 65.1817 57.2446 65.6098C56.9361 65.6098 56.6276 65.6098 56.3077 65.5982C55.1767 63.7584 54.0342 61.8955 52.8917 60.0325ZM52.6861 59.1184C54.0456 60.3912 55.2452 61.826 56.5705 63.1451C57.3245 63.9667 58.1128 64.7535 58.844 65.6098C58.5355 65.6214 58.2385 65.6214 57.93 65.6214C56.1592 63.4576 54.4226 61.2938 52.6861 59.1184ZM54.4912 60.4953C53.9656 59.9399 53.4173 59.4076 52.9146 58.8291C55.3366 60.9235 57.6787 63.1104 60.0665 65.2395C60.1807 65.3321 60.295 65.4362 60.3407 65.5751C60.0665 65.6214 59.7808 65.5982 59.5066 65.6098C57.8158 63.932 56.1592 62.2079 54.4912 60.4953ZM52.9031 58.3662C54.754 59.7201 61.7916 65.4594 62.0201 65.5751C61.7116 65.6214 61.3917 65.6098 61.0833 65.6098C58.3527 63.1914 55.5994 60.8078 52.9031 58.3662ZM38.8164 65.2048C38.6793 65.2974 38.5537 65.39 38.4166 65.471C38.0853 65.714 37.6511 65.5867 37.2627 65.6098C37.5597 65.4015 37.8682 65.2048 38.1767 65.0081C38.3023 64.9271 38.428 64.8577 38.5537 64.7767C38.6451 64.9155 38.725 65.0544 38.8164 65.2048ZM13.3393 62.879C13.3278 62.7054 13.2364 62.4972 13.3735 62.3467C14.1276 61.2475 14.8702 60.1482 15.6242 59.0489C16.0583 58.4357 16.6981 57.8571 17.4864 57.8802C18.5147 57.8918 19.5543 57.8571 20.5825 57.8918C21.5079 58.0191 22.0792 58.8754 22.5819 59.5928C23.5758 60.9698 24.5812 62.3583 25.5637 63.7353C25.7465 63.9783 25.8951 64.256 26.1464 64.4411C26.6262 64.4874 27.1061 64.4527 27.5859 64.4527C26.135 62.3814 24.6383 60.3565 23.1645 58.2968C22.6733 57.6025 22.1135 56.8273 21.2452 56.6421C20.2512 56.5958 19.2459 56.6306 18.2519 56.6306C17.8406 56.619 17.6121 57.0124 17.3608 57.2785C17.2008 57.267 17.0294 57.267 16.8695 57.2554C17.0294 56.9546 17.2237 56.6653 17.4065 56.3876C17.7378 55.8553 18.1034 55.3462 18.4575 54.837C19.4286 53.4485 20.3655 52.0252 21.3366 50.6251C21.6679 50.1275 22.2391 49.7688 22.8446 49.792C24.2499 49.8035 25.6666 49.7804 27.0718 49.8035C27.6887 49.8151 28.1 50.3242 28.4313 50.7871C29.3225 52.0021 33.6982 58.0654 34.6464 59.3961C35.8917 61.097 37.1027 62.8327 38.3709 64.5221C38.1995 64.6147 38.0396 64.7188 37.8682 64.823C37.4569 65.1238 36.8171 65.714 36.0973 65.633C33.5154 65.6214 30.9334 65.633 28.3628 65.633C28.1343 65.228 27.8487 64.8461 27.5859 64.4758C27.1061 64.4758 26.6262 64.4874 26.1578 64.5221C26.4206 64.8808 26.6719 65.2511 26.9004 65.633C22.6504 65.6445 18.4004 65.6214 14.1504 65.6445C13.8305 64.7304 13.6706 63.7816 13.3393 62.879ZM16.8467 71.893C16.0355 70.2615 15.1786 68.6299 14.6417 66.8826C15.4871 66.9058 16.3211 67.0562 17.1437 67.2298C18.2633 67.4844 19.3829 67.7621 20.4226 68.2481C20.4226 69.301 20.4226 70.354 20.4226 71.407C21.0395 71.4301 21.6565 71.4186 22.262 71.4186C22.3077 70.3656 22.1934 69.301 22.3191 68.2481C22.7875 67.9241 23.3245 67.7273 23.8614 67.5422C25.1753 67.1141 26.5577 66.8942 27.9401 66.8826C28.557 67.9356 29.3453 68.8729 30.0422 69.8796C30.4992 70.5623 31.0476 71.1871 31.4475 71.9046C26.5805 71.9046 21.7136 71.9046 16.8467 71.893ZM32.967 71.8814C31.8588 70.3424 30.7506 68.8035 29.6309 67.2761C29.551 67.1488 29.4824 67.0215 29.4139 66.8826C31.2647 66.9405 33.1269 67.3339 34.7607 68.2133C34.8064 69.2779 34.7607 70.3424 34.7835 71.407C35.4004 71.407 36.0174 71.407 36.6229 71.407C36.6343 69.8333 36.6229 68.2481 36.6343 66.6744C37.7425 66.6744 38.8507 66.6744 39.9703 66.6744C41.1014 68.329 42.301 69.9143 43.4549 71.5459C43.5234 71.6616 43.592 71.7773 43.6491 71.893C40.096 71.9046 36.5315 71.9161 32.967 71.8814ZM55.0853 71.9046C51.9777 71.893 48.8816 71.9277 45.7741 71.893C44.5517 70.1342 43.2607 68.4448 42.0496 66.6859C43.8662 66.6859 45.6827 66.6859 47.4878 66.6859C47.4992 67.3224 47.4878 67.9472 47.4992 68.5836C47.9448 69.0233 48.4246 69.4515 48.8359 69.9259C48.9159 70.4234 48.8474 70.921 48.8702 71.4186C50.9609 71.4301 53.0402 71.4186 55.131 71.4186C55.1424 70.921 55.1424 70.435 55.131 69.9375C55.5765 69.4746 56.0335 69.0233 56.5019 68.6068C56.5248 67.9703 56.5134 67.3339 56.5134 66.6859C58.9126 66.6859 61.3232 66.6859 63.7224 66.6859C64.9105 68.4563 66.2244 70.1342 67.424 71.893C63.3111 71.9161 59.1982 71.893 55.0853 71.9046ZM69.1263 71.9046C68.8292 71.9624 68.7493 71.6153 68.635 71.4186C68.8292 71.4186 69.0235 71.4186 69.2177 71.4186C69.2291 70.435 69.2177 69.4399 69.2291 68.4563C69.1834 68.2481 69.4005 68.1671 69.5376 68.0745C70.8971 67.3686 72.428 67.0678 73.9361 66.9174C75.4784 66.8364 77.0436 66.8248 78.5631 67.1372C78.8259 67.7158 79.2715 68.1902 79.6256 68.7109C80.3797 69.7755 81.168 70.8284 81.9106 71.893C77.6606 71.9046 73.3877 71.9046 69.1263 71.9046ZM80.4139 67.7042H80.5739C80.9737 67.8431 81.3393 68.0398 81.7163 68.2365C81.7278 68.6646 81.7278 69.1043 81.7163 69.5325C81.2479 68.9539 80.8252 68.3406 80.4139 67.7042ZM88.0114 70.2036C87.76 70.7822 87.463 71.3376 87.1545 71.893C85.9778 71.9046 84.8125 71.893 83.6357 71.893C83.3272 71.9393 83.2244 71.6037 83.0645 71.407C83.2358 71.407 83.4072 71.407 83.5786 71.407C83.6014 70.3656 83.5557 69.3126 83.6014 68.2596C84.047 67.9588 84.5725 67.8431 85.0752 67.6695C86.4805 67.2645 87.9086 66.9174 89.3709 66.8711C89.0396 68.0282 88.5026 69.1159 88.0114 70.2036ZM89.885 65.6214H89.8622C86.1834 65.5982 82.4932 65.6214 78.8145 65.6098C78.6088 65.1933 78.3232 64.823 78.049 64.4527C77.5806 64.4527 77.1122 64.4643 76.6438 64.499C76.8723 64.8924 77.135 65.2511 77.3978 65.6098C74.1532 65.6098 70.9085 65.6098 67.6639 65.6098C67.3783 65.633 67.1612 65.4362 66.9327 65.309C65.5503 64.4411 64.1679 63.5964 62.7855 62.7402C62.4428 62.5203 62.0658 62.3352 61.8259 61.988C60.5463 60.1945 59.2553 58.4241 57.9643 56.6306C57.6673 56.2719 57.3588 55.9247 57.1189 55.5197C55.6794 53.4253 54.1713 51.3772 52.6747 49.3291C52.3205 48.8663 51.9892 48.4034 51.6693 47.9174C50.8353 46.7372 49.9784 45.58 49.1444 44.4114C48.7902 43.9254 48.4361 43.4047 47.9105 43.0922C47.4421 42.8724 46.9166 42.8377 46.4139 42.8377C44.5859 42.8492 42.758 42.8261 40.9186 42.8492C40.5416 42.8377 40.3131 43.1617 40.0846 43.4162C40.0046 43.4162 39.8561 43.4162 39.7875 43.4162C39.9246 43.1848 40.0503 42.965 40.176 42.7335C40.4388 42.2591 40.6901 41.7963 40.9757 41.3334C41.9011 39.7944 42.7694 38.2208 43.6948 36.6934C43.9004 36.2999 44.1175 35.9065 44.3574 35.5362C44.8487 34.7494 45.5113 33.87 46.5053 33.8237C48.7103 33.8121 50.9267 33.8237 53.1316 33.8237C53.6915 33.8121 54.297 33.9394 54.7197 34.3328C55.1538 34.7378 56.4791 36.7628 56.879 37.2372C57.8958 38.6026 58.844 40.0143 59.8951 41.3566C60.2264 41.8078 60.5349 42.2822 60.8662 42.7335C62.1115 44.4808 63.3682 46.2165 64.6249 47.9521C64.9677 48.415 65.3104 48.8778 65.6532 49.3523C66.1216 49.3407 66.6014 49.3291 67.0813 49.2944C66.7728 48.8431 66.4415 48.4034 66.133 47.9406C64.8763 46.1933 63.6424 44.4345 62.3514 42.722C62.0087 42.2707 61.7002 41.8078 61.3803 41.345C60.3178 39.8523 56.0906 33.9973 55.6908 33.4881C55.428 33.1641 55.131 32.8517 54.7197 32.7244C54.2855 32.6087 53.8286 32.5624 53.3716 32.5624C51.2694 32.574 49.1787 32.5624 47.0765 32.574C46.6424 32.5509 46.3682 32.9327 46.1283 33.2451C45.9912 33.2451 45.8655 33.2336 45.7284 33.2336C45.9569 32.8054 46.2082 32.4004 46.4482 31.9723C46.8709 31.1855 47.3279 30.4218 47.7849 29.6465C48.3447 28.7324 48.8702 27.7951 49.4186 26.8694C49.967 25.9553 50.3669 24.8907 51.2466 24.2312C51.8863 23.965 52.549 23.7452 53.2459 23.7452C55.6108 23.7452 57.9757 23.7452 60.3292 23.7452C61.0261 23.7567 61.7002 23.965 62.34 24.2312C63.2768 24.856 63.8138 25.8858 64.465 26.7653C65.139 27.7257 65.8359 28.6745 66.5214 29.6233C67.1041 30.3755 67.6525 31.1507 68.1895 31.926C69.0349 33.1294 69.9032 34.3097 70.76 35.5015C71.0571 35.8834 71.3541 36.2768 71.6169 36.6934C72.7479 38.2439 73.8447 39.8176 74.9986 41.345C75.3642 41.8425 75.7298 42.3401 76.0725 42.8608C77.3064 44.5502 78.4946 46.2859 79.7741 47.9406C80.1283 48.4266 80.471 48.9241 80.8024 49.4101C82.1162 51.2152 83.3844 53.0435 84.7439 54.8254C85.0866 55.2999 85.4294 55.7743 85.7607 56.2603C87.3602 58.5167 88.9939 60.7499 90.6162 62.9947C90.3535 63.8857 90.1364 64.7651 89.885 65.6214Z" fill="white"/>
<path id="Vector_4" d="M102.68 44.3766C101.789 38.8687 100.019 33.4997 97.448 28.5588C94.8888 23.641 91.5414 19.1398 87.5884 15.2866C81.8418 9.70926 74.8041 5.48577 67.1952 3.1021C65.3901 2.53511 63.5622 2.07226 61.7114 1.71355C58.6952 1.14656 55.6334 0.799423 52.5716 0.810995C47.6475 0.729996 42.7006 1.40113 37.9593 2.76653C32.6468 4.28236 27.5971 6.68917 23.05 9.84811C15.384 15.1362 9.19182 22.5764 5.31883 31.116C2.98818 36.2536 1.50296 41.7847 0.920303 47.4083C0.440464 52.3376 0.60041 57.3364 1.49154 62.2079C2.43979 67.4496 4.18778 72.541 6.67837 77.2504C9.94585 83.4526 14.47 88.9721 19.8854 93.3691C24.2725 96.9446 29.2422 99.7796 34.5433 101.724C39.3417 103.482 44.4029 104.489 49.4983 104.755C50.3323 104.778 51.1777 104.721 52.0118 104.813C52.4002 104.848 52.7772 104.755 53.1657 104.755C53.9654 104.732 54.7651 104.79 55.5534 104.674C59.3236 104.431 63.0823 103.737 66.7154 102.649C75.7752 99.93 84.0353 94.5841 90.3075 87.4447C96.6368 80.3168 100.944 71.3607 102.589 61.9186C103.583 56.133 103.617 50.1738 102.68 44.3766ZM98.0192 72.8534C94.5118 81.0574 88.8223 88.2894 81.7047 93.5774C73.9473 99.3977 64.4876 102.846 54.8451 103.367C54.1939 103.332 53.5541 103.471 52.9029 103.459C51.8747 103.459 50.8464 103.506 49.8182 103.378C48.3216 103.378 46.8478 103.193 45.3626 103.008C39.9015 102.279 34.5662 100.636 29.6421 98.1365C24.6152 95.614 20.0339 92.2004 16.1152 88.139C10.4257 82.2261 6.16426 74.8899 3.87931 66.9521C1.30874 57.9844 1.21735 48.2993 3.65082 39.2853C6.14141 29.982 11.3397 21.454 18.4116 15.0089C23.8955 9.9754 30.5104 6.20318 37.6052 4.05093C37.8679 3.96994 38.1307 3.88894 38.3935 3.81951C40.5984 3.17152 42.8605 2.73182 45.1341 2.38468C45.7738 2.30368 46.4365 2.26897 47.0648 2.15326C47.8303 2.16483 48.5958 1.97969 49.3612 2.0144C50.6865 1.96812 52.0232 1.82926 53.3484 1.94497C54.1139 2.02597 54.8908 1.99126 55.6562 2.03754C56.1361 2.15326 56.6274 2.10697 57.1186 2.19954C66.2241 3.1021 75.0555 6.65446 82.333 12.2781C87.3713 16.1429 91.667 21.0028 94.9345 26.4875C97.9735 31.5673 100.11 37.1909 101.207 43.0228C103.126 52.9856 102.029 63.5386 98.0192 72.8534Z" fill="#0054A6"/>
<path id="Vector_5" d="M84.7436 54.8485C83.3955 53.0666 82.1159 51.2383 80.802 49.4332C80.4593 48.9357 80.128 48.4381 79.7738 47.9637C78.4942 46.2974 77.3175 44.5733 76.0722 42.8839C75.7409 42.3632 75.3639 41.8656 74.9983 41.3681C73.8444 39.8407 72.7476 38.2554 71.6166 36.7164C71.3652 36.2999 71.0682 35.9065 70.7597 35.5246C69.9028 34.3328 69.0346 33.1525 68.1891 31.9491C67.6407 31.1738 67.1038 30.3986 66.5211 29.6464C65.8356 28.6976 65.1387 27.7488 64.4647 26.7883C63.8134 25.9089 63.2765 24.8675 62.3397 24.2542C61.6999 23.9881 61.0258 23.7798 60.3289 23.7683C57.964 23.7683 55.6105 23.7683 53.2456 23.7683C52.5486 23.7567 51.886 23.9765 51.2462 24.2542C50.3665 24.9022 49.9667 25.9784 49.4183 26.8925C48.8813 27.8182 48.3443 28.7555 47.7845 29.6696C47.3275 30.4333 46.8706 31.2086 46.4478 31.9954C46.2079 32.412 45.9566 32.8285 45.7281 33.2567C45.8652 33.2567 45.9908 33.2567 46.1279 33.2682C46.3679 32.9674 46.6421 32.5855 47.0762 32.5971C49.1784 32.5855 51.2691 32.5971 53.3712 32.5855C53.8282 32.5855 54.2852 32.6202 54.7194 32.7475C55.1192 32.8748 55.4277 33.1872 55.6905 33.5112C56.0903 34.0319 60.3175 39.8754 61.38 41.3681C61.6999 41.8309 62.0083 42.2938 62.3511 42.7451C63.6421 44.4576 64.876 46.228 66.1327 47.9637C66.4411 48.4265 66.7725 48.8547 67.0809 49.3175C66.6011 49.3522 66.1327 49.3522 65.6528 49.3754C66.1327 49.3754 66.6011 49.3406 67.0809 49.3869C67.218 49.4679 67.3208 49.6068 67.4237 49.7456C68.4519 51.1805 69.4915 52.6037 70.5198 54.0386C71.1367 54.8717 71.6622 55.7858 72.3477 56.5727C73.97 58.8175 75.5924 61.0739 77.2261 63.3302C77.5003 63.7121 77.7973 64.0592 77.9916 64.4874C77.5231 64.4989 77.0433 64.4989 76.5749 64.4989C76.0379 63.8278 75.5581 63.1104 75.0554 62.4277C73.2846 59.9399 71.4566 57.4868 69.72 54.9758C69.4001 54.594 69.1145 54.189 68.8289 53.784C67.7893 52.3144 66.6925 50.868 65.6757 49.3754C65.3329 48.9125 65.0016 48.4381 64.6475 47.9752C63.3907 46.2396 62.134 44.5039 60.8887 42.7566C60.5574 42.3053 60.2489 41.8309 59.9176 41.3797C58.8665 40.049 57.9183 38.6257 56.9015 37.2603C56.4902 36.7859 55.1763 34.7609 54.7422 34.3559C54.3081 33.9625 53.714 33.8352 53.1542 33.8468C50.9492 33.8584 48.7328 33.8468 46.5278 33.8468C45.5224 33.9046 44.8712 34.7725 44.38 35.5593C44.1286 35.9296 43.923 36.323 43.7173 36.7164C42.7919 38.2554 41.9236 39.8291 40.9982 41.3565C40.7126 41.8078 40.4498 42.2822 40.1985 42.7566C40.0728 42.988 39.9357 43.2079 39.8101 43.4393C39.89 43.4393 40.0386 43.4393 40.1071 43.4393C40.3356 43.1848 40.5641 42.8608 40.9411 42.8723C42.7691 42.8608 44.597 42.8723 46.4364 42.8608C46.9391 42.8608 47.4646 42.8955 47.9331 43.1153C48.4586 43.4278 48.8013 43.96 49.1669 44.4345C50.0124 45.6031 50.8578 46.7718 51.6918 47.9405C52.0117 48.4149 52.3544 48.8894 52.6972 49.3522C54.1824 51.4119 55.7019 53.4484 57.1414 55.5428C57.3813 55.9478 57.6898 56.2949 57.9868 56.6537C59.2664 58.4356 60.5688 60.2176 61.8484 62.0111C62.0883 62.3583 62.4653 62.5434 62.8081 62.7633C64.1905 63.6195 65.5843 64.4642 66.9553 65.3321C67.1838 65.4594 67.4122 65.6561 67.6864 65.6329C70.9311 65.6329 74.1757 65.6329 77.4203 65.6329C77.1576 65.2742 76.8948 64.9039 76.6663 64.5221C77.1347 64.4874 77.6031 64.4758 78.0715 64.4758C78.3572 64.8461 78.6313 65.2164 78.837 65.6329C82.5158 65.6445 86.2059 65.6213 89.8847 65.6445H89.9076C90.1703 64.7767 90.376 63.8972 90.6502 63.041C89.0279 60.7962 87.3941 58.5629 85.7947 56.3065C85.4405 55.7858 85.0863 55.3114 84.7436 54.8485Z" fill="#0054A6"/>
<path id="Vector_6" d="M43.6945 61.2359C46.0937 59.7432 48.4929 58.2621 50.8921 56.781C51.0178 56.7116 51.132 56.5959 51.1092 56.4339C51.132 55.7974 51.1092 55.1495 51.1092 54.5015C51.7147 54.5015 52.3088 54.5015 52.9143 54.5015C52.9714 55.2189 52.8914 55.9247 52.96 56.6421C53.6912 57.1628 58.2839 59.9399 59.2093 60.5416C57.9754 58.6671 56.5245 56.943 55.382 55.0106C55.1878 54.8023 54.9707 54.6172 54.7994 54.3858C53.6112 52.7195 52.4002 51.0764 51.212 49.4101C50.8693 48.9241 50.5379 48.4381 50.1952 47.9522C49.384 46.957 48.71 45.8462 47.8874 44.8626C47.5332 44.3998 46.9848 44.1105 46.3908 44.1221C44.3 44.1221 42.2093 44.1105 40.1071 44.1221C39.673 44.1105 39.2731 44.3304 39.0446 44.7006C38.3706 45.7652 37.7879 46.8876 37.1139 47.9522C36.8168 48.4381 36.5426 48.9241 36.2684 49.4217C35.423 50.8797 34.5776 52.3261 33.7321 53.784C33.595 54.0386 33.4237 54.27 33.3323 54.5362C33.5151 55.0569 38.0393 61.2012 39.8558 63.5964C41.124 62.798 42.4149 62.0228 43.6945 61.2359Z" fill="#0054A6"/>
<path id="Vector_7" d="M36.1197 65.6214C36.8394 65.7139 37.4792 65.1238 37.8905 64.8114C38.0505 64.7072 38.2218 64.6147 38.3932 64.5105C37.1251 62.8211 35.914 61.0854 34.6687 59.3845C33.7091 58.0538 29.3334 51.9905 28.4537 50.7755C28.1224 50.3126 27.7111 49.8035 27.0941 49.7919C25.6889 49.7688 24.2722 49.7919 22.867 49.7804C22.2615 49.7572 21.7017 50.1159 21.3589 50.6135C20.3992 52.0136 19.4624 53.4253 18.4799 54.8254C18.1257 55.3345 17.7601 55.8437 17.4288 56.3759C17.246 56.6652 17.0518 56.9429 16.8918 57.2438C17.0518 57.2438 17.2117 57.2554 17.3831 57.2669C17.6345 57.0008 17.8629 56.6074 18.2742 56.6189C19.2682 56.6189 20.2736 56.5958 21.2675 56.6305C22.1358 56.8272 22.6956 57.6025 23.1869 58.2852C24.6492 60.3449 26.1573 62.3698 27.6083 64.4411C27.8824 64.8229 28.1566 65.1932 28.3851 65.5982C30.9671 65.6214 33.5377 65.6098 36.1197 65.6214Z" fill="#0054A6"/>
<path id="Vector_8" d="M41.7984 64.1749C42.0269 64.0129 42.2554 63.8509 42.4725 63.6889C45.3058 61.6524 48.1734 59.639 50.9839 57.5793C49.5787 58.424 48.2306 59.3613 46.8596 60.2639C45.8542 60.9466 40.3018 64.6262 40.2561 64.6609C40.3247 64.6494 40.4846 64.6378 40.5531 64.6262C40.5874 64.7072 40.6674 64.8692 40.7131 64.9502C41.0787 64.6956 41.4329 64.4179 41.7984 64.1749Z" fill="#0054A6"/>
<path id="Vector_9" d="M26.9114 65.6099C26.6829 65.228 26.4315 64.8577 26.1688 64.499C26.6486 64.4643 27.1285 64.4528 27.5969 64.4528C27.117 64.4528 26.6372 64.4875 26.1574 64.4412C25.906 64.2676 25.7575 63.9783 25.5747 63.7353C24.5807 62.3468 23.5868 60.9698 22.5928 59.5928C22.0901 58.8754 21.5189 58.0307 20.5935 57.8919C19.5653 57.8572 18.5256 57.8919 17.4974 57.8803C16.7091 57.8572 16.0693 58.4357 15.6352 59.049C14.8811 60.1483 14.1385 61.2591 13.3845 62.3468C13.2474 62.4972 13.3388 62.7055 13.3502 62.8791C13.6815 63.7816 13.8415 64.7305 14.1728 65.6214C18.4114 65.6099 22.6614 65.6214 26.9114 65.6099Z" fill="#0054A6"/>
<path id="Vector_10" d="M46.9966 61.1895C48.3561 60.0902 49.7728 59.0603 51.0981 57.9148C48.1848 59.9629 45.3171 62.0804 42.4038 64.1401C42.2325 64.2674 42.0497 64.3831 41.8783 64.5104C41.4099 64.8691 40.93 65.2278 40.4502 65.5749C40.7472 65.5749 41.0557 65.5981 41.3527 65.6097C43.2378 64.1401 45.1115 62.659 46.9966 61.1895Z" fill="#0054A6"/>
<path id="Vector_11" d="M52.9148 57.9382C54.6971 59.3846 56.525 60.7963 58.3301 62.2196C59.5297 63.1453 60.7065 64.0941 61.9061 65.0198C62.146 65.1934 62.3859 65.3901 62.6258 65.5752C62.9229 65.6447 63.2313 65.6447 63.5398 65.6331L63.437 65.5405C61.2549 63.8511 58.9585 62.3122 56.7535 60.6459C55.4625 59.7549 54.2286 58.7829 52.9148 57.9382Z" fill="#0054A6"/>
<path id="Vector_12" d="M43.1119 65.4595C44.7799 63.99 46.4479 62.5089 48.116 61.0393C49.0985 60.1483 50.1267 59.2921 51.0864 58.3779C49.5555 59.5235 48.0817 60.75 46.5736 61.9303C45.0541 63.1568 43.5004 64.3371 42.0151 65.6099C42.3693 65.5752 42.8149 65.7488 43.1119 65.4595Z" fill="#0054A6"/>
<path id="Vector_13" d="M62.0203 65.5868C61.7918 65.4711 54.7541 59.7318 52.9033 58.3779C55.611 60.8195 58.3643 63.2031 61.0834 65.6331C61.3919 65.6215 61.7004 65.6215 62.0203 65.5868Z" fill="#0054A6"/>
<path id="Vector_14" d="M51.2124 58.7598C50.3669 59.4078 49.6243 60.1599 48.8246 60.8542C47.4536 62.0923 46.0826 63.3304 44.7231 64.5685C44.3575 64.9041 43.9348 65.2049 43.6492 65.6215C43.9462 65.6215 44.2318 65.6215 44.5289 65.6215C46.7681 63.342 48.996 61.0509 51.2124 58.7598Z" fill="#0054A6"/>
<path id="Vector_15" d="M60.3409 65.5868C60.2952 65.4364 60.1695 65.3438 60.0667 65.2513C57.6789 63.1222 55.3368 60.9236 52.9148 58.8408C53.4175 59.4194 53.9659 59.9517 54.4914 60.5071C56.1594 62.2196 57.816 63.9437 59.5069 65.6331C59.7811 65.6216 60.0667 65.6331 60.3409 65.5868Z" fill="#0054A6"/>
<path id="Vector_16" d="M51.3266 59.1069C49.453 60.993 47.6707 62.9601 45.8313 64.8694C45.6143 65.1008 45.3629 65.3091 45.2258 65.5984C45.5114 65.61 45.8085 65.61 46.0941 65.6215C47.8421 63.4577 49.6129 61.3055 51.3266 59.1069Z" fill="#0054A6"/>
<path id="Vector_17" d="M58.8323 65.6099C58.1125 64.7652 57.3128 63.9783 56.5587 63.1452C55.2449 61.8261 54.0339 60.3912 52.6743 59.1184C54.4109 61.2938 56.1589 63.4576 57.9068 65.6214C58.2267 65.6214 58.5238 65.6214 58.8323 65.6099Z" fill="#0054A6"/>
<path id="Vector_18" d="M50.721 60.6921C50.9609 60.2755 51.2465 59.8937 51.4179 59.4424C49.9441 61.3748 48.4703 63.3072 46.9965 65.2396C46.928 65.3553 46.8594 65.471 46.8137 65.6098C47.0993 65.6098 47.385 65.6214 47.682 65.6214C48.7102 63.9899 49.7042 62.3352 50.721 60.6921Z" fill="#0054A6"/>
<path id="Vector_19" d="M57.256 65.6214C57.0275 65.1933 56.6962 64.8461 56.422 64.4527C55.1424 62.7865 53.8857 61.0971 52.5833 59.4424C52.6746 59.6507 52.7889 59.8474 52.9031 60.0441C54.0342 61.9071 55.1881 63.7584 56.3306 65.6214C56.6276 65.6214 56.9361 65.6214 57.256 65.6214Z" fill="#0054A6"/>
<path id="Vector_20" d="M51.3035 60.5879C51.3949 60.3565 51.4749 60.1251 51.532 59.8821C51.0636 60.6226 50.6638 61.4095 50.2296 62.1616C49.6127 63.3187 48.9043 64.4296 48.356 65.6214C48.6644 65.6214 48.9729 65.6214 49.2928 65.6214C49.9554 63.9436 50.6181 62.2542 51.3035 60.5879Z" fill="#0054A6"/>
<path id="Vector_21" d="M55.6677 65.6098C55.4735 65.147 55.2107 64.7188 54.9708 64.2791C54.2624 63.0063 53.5541 61.7219 52.8343 60.4375C52.7201 60.2408 52.6287 60.0325 52.4688 59.8821C53.1657 61.8145 53.9882 63.689 54.7308 65.6098C55.0393 65.6214 55.3592 65.6214 55.6677 65.6098Z" fill="#0054A6"/>
<path id="Vector_22" d="M54.114 65.61C53.5085 63.7586 52.8802 61.9072 52.2632 60.0674C52.0918 60.0674 51.9091 60.0674 51.7377 60.0674C51.2693 61.4906 50.7894 62.9023 50.3096 64.314C50.1725 64.7422 50.0011 65.1587 49.9211 65.5984C51.3264 65.6216 52.7202 65.6216 54.114 65.61Z" fill="#0054A6"/>
<path id="Vector_23" d="M62.5457 62.9832C62.8198 63.3419 63.0255 63.7816 63.4254 64.0361C64.1565 64.5106 64.8992 64.9965 65.6189 65.4941C65.916 65.6792 66.2701 65.6214 66.6014 65.6445L66.5672 65.4594C65.1962 64.661 63.9052 63.7584 62.5457 62.9832Z" fill="#0054A6"/>
<path id="Vector_24" d="M37.2625 65.6099C37.6395 65.5867 38.085 65.714 38.4164 65.471C38.5534 65.3785 38.6791 65.2859 38.8162 65.2049C38.7248 65.066 38.6448 64.9272 38.5534 64.7883C38.4278 64.8693 38.3021 64.9503 38.1764 65.0198C37.8565 65.2049 37.5595 65.4016 37.2625 65.6099Z" fill="#0054A6"/>
<path id="Vector_25" d="M50.9042 67.3455C50.927 66.9984 50.927 66.6512 50.927 66.3157C50.3101 66.3157 49.6817 66.3157 49.0648 66.3157C49.0534 66.6628 49.0648 67.0099 49.0876 67.3571C49.6931 67.3339 50.2987 67.3339 50.9042 67.3455Z" fill="#0054A6"/>
<path id="Vector_26" d="M54.9255 67.3454C54.9598 66.9982 54.9598 66.6511 54.9484 66.304C54.3314 66.304 53.7145 66.304 53.0861 66.304C53.0861 66.628 53.0861 66.9519 53.0747 67.2759C53.6802 67.4148 54.3086 67.2991 54.9255 67.3454Z" fill="#0054A6"/>
<path id="Vector_27" d="M39.982 66.6743C38.8738 66.6743 37.7542 66.6743 36.646 66.6743C36.6346 68.248 36.646 69.8333 36.6346 71.4069C36.0176 71.4069 35.4007 71.4069 34.7952 71.4069C34.7723 70.3424 34.818 69.2778 34.7723 68.2133C33.1272 67.3339 31.2649 66.9405 29.4255 66.8826C29.4827 67.0215 29.5626 67.1487 29.6426 67.276C30.7508 68.815 31.859 70.354 32.9786 71.8814C36.5432 71.9045 40.1077 71.8929 43.6722 71.8929C43.6036 71.7772 43.5465 71.6499 43.478 71.5458C42.3126 69.9143 41.1016 68.329 39.982 66.6743Z" fill="#0054A6"/>
<path id="Vector_28" d="M56.513 66.6743C56.513 67.3107 56.5245 67.9472 56.5016 68.5951C56.0218 69.0233 55.5762 69.4746 55.1306 69.9258C55.1421 70.4234 55.1421 70.9094 55.1306 71.4069C53.0399 71.4069 50.9606 71.4069 48.8699 71.4069C48.847 70.9094 48.9156 70.4002 48.8356 69.9143C48.4243 69.4398 47.9445 69.0233 47.4989 68.572C47.4875 67.9356 47.4989 67.3107 47.4875 66.6743C45.671 66.6859 43.8544 66.6743 42.0493 66.6743C43.2603 68.4331 44.5513 70.1341 45.7738 71.8814C48.8813 71.9161 51.9774 71.8814 55.0849 71.8929C59.1979 71.8814 63.3222 71.9161 67.4351 71.8814C66.2355 70.1225 64.9217 68.4447 63.7335 66.6743C61.3229 66.6743 58.9237 66.6743 56.513 66.6743Z" fill="#0054A6"/>
<path id="Vector_29" d="M66.2924 68.2364C66.658 68.6993 66.9436 69.2316 67.3664 69.6481C67.3664 68.653 67.3664 67.6694 67.3664 66.6743C66.6466 66.6743 65.9383 66.6743 65.2185 66.6743C65.5155 67.2413 65.9383 67.7157 66.2924 68.2364Z" fill="#0054A6"/>
<path id="Vector_30" d="M27.9398 66.8711C26.5574 66.8827 25.175 67.1025 23.8611 67.5307C23.3356 67.7158 22.7872 67.9125 22.3188 68.2365C22.1931 69.2779 22.3074 70.354 22.2617 71.407C21.6447 71.3954 21.0278 71.407 20.4223 71.3954C20.4223 70.3425 20.4223 69.2895 20.4223 68.2365C19.3826 67.7389 18.2516 67.4728 17.1434 67.2182C16.3208 67.0562 15.4868 66.8942 14.6414 66.8711C15.1897 68.6183 16.0352 70.2615 16.8463 71.8814C21.7133 71.893 26.5802 71.893 31.4472 71.8814C31.0473 71.164 30.4989 70.5392 30.0419 69.8565C29.345 68.8613 28.5567 67.9241 27.9398 66.8711Z" fill="#0054A6"/>
<path id="Vector_31" d="M78.5629 67.1371C77.0434 66.8247 75.4782 66.8363 73.9358 66.9173C72.4278 67.0677 70.8969 67.3686 69.5373 68.0744C69.4002 68.1554 69.1832 68.248 69.2289 68.4563C69.2174 69.4398 69.2403 70.4349 69.2174 71.4185C69.0232 71.4185 68.829 71.4185 68.6348 71.4185C68.749 71.6152 68.829 71.9623 69.126 71.9045C73.3875 71.9045 77.6489 71.916 81.9103 71.9045C81.1677 70.8283 80.3794 69.7869 79.6254 68.7224C79.2712 68.1901 78.8371 67.7157 78.5629 67.1371Z" fill="#0054A6"/>
<path id="Vector_32" d="M83.6017 68.2711C83.556 69.3125 83.6017 70.3655 83.5788 71.4185C83.4074 71.4185 83.2361 71.4185 83.0647 71.4185C83.2132 71.6152 83.3275 71.9508 83.6359 71.9045C84.8127 71.9045 85.978 71.9161 87.1548 71.9045C87.4632 71.3606 87.7603 70.7936 88.0116 70.2151C88.5029 69.1274 89.0513 68.0397 89.3712 66.8826C87.9088 66.9404 86.4693 67.2876 85.0755 67.681C84.5728 67.843 84.0472 67.9703 83.6017 68.2711Z" fill="#0054A6"/>
<path id="Vector_33" d="M81.7275 68.2364C81.3505 68.0512 80.9849 67.843 80.585 67.7041H80.425C80.8249 68.3289 81.2591 68.9538 81.7389 69.5324C81.7389 69.0926 81.7389 68.6645 81.7275 68.2364Z" fill="#0054A6"/>
</g>
<g id="Group_4">
<g id="Group_5">
<path id="Vector_34" d="M46.414 3.69223C47.168 3.61123 47.9221 3.49552 48.6875 3.49552C50.3898 3.29881 52.115 3.40295 53.8287 3.39138C58.5128 3.58809 63.197 4.43279 67.6412 5.97176C75.0559 8.50586 81.8421 12.9029 87.2346 18.6422C91.6103 23.2707 95.0834 28.7786 97.3798 34.761C101.401 45.1288 101.778 56.8967 98.4537 67.5191C95.8489 75.9545 90.9248 83.6262 84.4013 89.4928C83.0189 90.7425 81.5794 91.9343 80.0485 92.9873C80.0599 90.9855 80.0485 88.9837 80.0485 86.9934C80.0599 86.4264 80.0256 85.8363 79.7857 85.3156C79.2373 83.8923 77.8435 82.9666 76.4154 82.6195C77.2266 82.6889 78.0377 82.6311 78.8489 82.6542C79.1688 82.3649 79.4772 82.0757 79.7628 81.7517C73.9476 81.7285 68.1325 81.7517 62.3287 81.7401C62.9913 81.1384 63.1398 80.2243 63.2769 79.3796C62.4429 79.368 61.6089 79.368 60.7749 79.368C60.5464 79.3448 60.3636 79.4953 60.1808 79.6226C59.4154 79.4606 58.5814 79.2291 57.8388 79.611C57.1418 79.9003 56.6849 80.5598 56.5021 81.2888C56.3992 81.1615 56.2964 81.0227 56.1707 80.907C55.4167 80.8375 54.6627 80.8954 53.9086 80.8838C53.8972 81.1615 53.8858 81.4392 53.8972 81.7285C51.1667 80.8375 48.3334 80.2821 45.4772 80.097C44.3461 79.9466 43.1922 80.0391 42.0498 80.016C40.7473 79.9813 39.4449 80.2011 38.1539 80.2705C38.0625 79.9697 37.9369 79.6804 37.8112 79.3911C36.3145 79.3911 34.8293 79.3796 33.3327 79.3911C33.6526 79.9813 34.1096 80.4788 34.5209 80.9995C33.6983 81.1615 32.91 81.4161 32.1102 81.6707C31.9274 81.7285 31.7332 81.7632 31.539 81.7632C29.0941 81.7632 26.6492 81.7517 24.2043 81.7748C24.4899 82.0988 24.8098 82.3997 25.1526 82.6542C24.9469 82.6658 24.7298 82.6774 24.5242 82.6889C24.5014 83.9155 24.5128 85.1536 24.5128 86.3801C24.3186 86.3801 24.1358 86.3917 23.953 86.3917C23.9073 87.3637 23.953 88.3473 23.9301 89.3192C24.1243 89.3424 24.33 89.3655 24.5242 89.4002C24.5128 90.7425 24.5242 92.0848 24.5242 93.4155C17.8978 88.868 12.4482 82.5848 8.74663 75.3875C6.72445 71.4186 5.22781 67.1835 4.32525 62.8096C2.3602 53.1592 3.26275 42.9302 6.98722 33.8468C10.8031 24.4626 17.5665 16.3396 26.0551 10.9474C32.1902 7.01317 39.205 4.51379 46.414 3.69223ZM49.2473 12.3012C47.6022 12.4401 45.9684 12.6484 44.3461 12.9492C45.4086 13.0533 46.4826 12.9723 47.5451 12.9955C51.0867 12.9955 54.6284 12.9955 58.1701 12.9955C58.6613 12.9955 59.164 13.0186 59.6553 12.9492C57.656 12.5558 55.6338 12.3128 53.6002 12.2549C52.1492 12.0698 50.6983 12.2781 49.2473 12.3012ZM36.5773 15.3444C36.4516 15.4139 36.2574 15.437 36.2231 15.6106C37.2171 15.6569 38.211 15.6222 39.205 15.6337C48.7675 15.6222 58.33 15.6569 67.904 15.6106C67.744 15.5064 67.5955 15.4023 67.4241 15.3329C66.3502 14.8932 65.2648 14.4766 64.1681 14.1295C63.6768 13.979 63.1513 14.0716 62.6371 14.0485C55.9308 14.06 49.2359 14.0253 42.5296 14.06C41.7299 14.0369 40.9187 14.0253 40.119 14.06C38.908 14.3956 37.7426 14.8816 36.5773 15.3444ZM31.2077 18.1331C30.7507 18.4455 30.2251 18.6885 29.8253 19.0935C31.7332 19.1398 33.6411 19.0935 35.5491 19.1051C42.7467 19.1051 49.9443 19.1051 57.1418 19.1051C62.8314 19.0935 68.5209 19.1282 74.199 19.0935C73.5364 18.515 72.7366 18.11 71.994 17.6471C71.6284 17.462 71.2857 17.1264 70.8401 17.1727C58.1929 17.1843 45.5457 17.1611 32.8985 17.1843C32.3045 17.4273 31.7675 17.8091 31.2077 18.1331ZM23.6445 24.208C32.8414 24.2311 42.0498 24.1849 51.2467 24.2311C50.367 24.8791 49.9671 25.9553 49.4187 26.8694L49.3844 26.8C49.3273 26.7884 49.2131 26.7652 49.156 26.7537C39.8791 26.7537 30.6136 26.7652 21.3367 26.7421C20.5941 27.6794 19.8172 28.5935 19.2117 29.6233C28.7399 29.6349 38.2682 29.6233 47.7964 29.6233C47.3394 30.387 46.8824 31.1623 46.4597 31.9491C46.1969 31.7987 45.8885 31.9144 45.6029 31.9029C43.3979 31.8913 41.1929 31.9144 38.9765 31.9029C37.2285 31.8797 35.4691 31.9491 33.7211 31.8681C32.6243 31.9376 31.5161 31.8797 30.4079 31.9029C27.8488 31.8913 25.3011 31.9376 22.7419 31.8797C21.6452 31.9376 20.537 31.8913 19.4402 31.9029C18.8575 31.926 18.2634 31.7987 17.6922 31.9376C17.1095 32.8748 16.6069 33.8815 16.1156 34.8651C16.0128 35.0734 15.9328 35.2817 15.8757 35.5015C25.3696 35.5247 34.8636 35.5131 44.3576 35.5131C44.1062 35.8834 43.9006 36.2768 43.6949 36.6702L43.6492 36.6123C43.5007 36.5776 43.3522 36.5545 43.2037 36.5661C33.9153 36.5776 24.6156 36.5545 15.3273 36.5776C14.6875 38.1166 14.1048 39.6787 13.6593 41.2987C22.7648 41.3334 31.8703 41.2871 40.9644 41.3218C40.6788 41.7731 40.416 42.2475 40.1647 42.7219C31.1963 42.6988 22.2278 42.7104 13.2594 42.7219C12.871 44.4345 12.4711 46.1702 12.3568 47.929C20.6055 47.929 28.8656 47.9059 37.1143 47.9406C36.8172 48.4266 36.543 48.9125 36.2688 49.4101C35.7319 49.2018 35.1721 49.4217 34.6237 49.3523C34.1667 49.2713 33.7097 49.4217 33.2527 49.3523C31.539 49.3985 29.8253 49.2828 28.1116 49.3754C27.0833 49.2828 26.0551 49.3407 25.0269 49.3291C23.7702 49.3523 22.5134 49.2828 21.2567 49.387C20.754 49.4101 20.2628 49.2828 19.7715 49.3754C19.0517 49.3985 18.332 49.2597 17.6008 49.3638C16.4926 49.3754 15.3844 49.3985 14.2876 49.3523C13.5793 49.4795 12.8595 49.2365 12.1626 49.4101C12.0827 51.0879 11.9798 52.7773 12.0941 54.4552C12.1169 54.5824 12.1398 54.7097 12.1855 54.837C14.2876 54.8023 16.3898 54.8486 18.4919 54.8139C18.1378 55.323 17.7722 55.8321 17.4409 56.3644L17.4066 56.295C17.2124 56.2256 17.0181 56.2487 16.8239 56.2487C15.3044 56.2487 13.7849 56.2487 12.254 56.2487C12.3797 58.4819 12.8138 60.6921 13.3508 62.8674C13.6821 63.77 13.8421 64.7188 14.1734 65.6098C14.2991 66.0379 14.4476 66.4545 14.6075 66.8595H14.6418C15.1902 68.6068 16.0356 70.2499 16.8468 71.8698C21.7137 71.893 26.5807 71.8814 31.4476 71.8698C31.0477 71.1524 30.4993 70.5276 30.0424 69.8449C29.3569 68.8382 28.5571 67.9009 27.9402 66.8479C28.4315 66.8364 28.9227 66.8364 29.4254 66.8595C29.4825 66.9984 29.5625 67.1256 29.6425 67.2529C30.7507 68.7919 31.8589 70.3309 32.9785 71.8698C36.543 71.893 40.1076 71.8814 43.6721 71.8814C43.6035 71.7657 43.5464 71.6384 43.4779 71.5343C42.324 69.9027 41.1129 68.3175 39.9933 66.6628C40.6788 66.6628 41.3757 66.6628 42.0612 66.6628C43.2722 68.4216 44.5632 70.1226 45.7857 71.8698C48.8932 71.9046 51.9893 71.8698 55.0968 71.8814C59.2097 71.8698 63.3341 71.893 67.447 71.8698C66.2474 70.111 64.9335 68.4332 63.7453 66.6628C64.248 66.6628 64.7393 66.6628 65.242 66.6628C65.539 67.2182 65.9503 67.7042 66.3159 68.2133C66.6815 68.6762 66.9671 69.2085 67.3898 69.625C67.3898 70.2152 67.3898 70.7937 67.3898 71.3839C67.8126 71.3839 68.2353 71.3839 68.658 71.3839C68.7837 71.5806 68.8522 71.9277 69.1493 71.8698C73.4107 71.8698 77.6721 71.8698 81.9335 71.8698C81.1909 70.7937 80.4026 69.7523 79.6486 68.6878C79.2944 68.1671 78.8489 67.6926 78.5861 67.1141C79.2716 67.2414 79.9571 67.4265 80.5968 67.6811H80.4369C80.8368 68.3059 81.2709 68.9308 81.7507 69.5093C81.7507 70.1342 81.7507 70.7706 81.7622 71.3954C82.1963 71.3839 82.6419 71.3954 83.0874 71.3954C83.236 71.5921 83.3502 71.9277 83.6587 71.8814C84.8354 71.8814 86.0008 71.893 87.1775 71.8814C87.486 71.3376 87.783 70.7706 88.0344 70.192C88.5256 69.1043 89.074 68.0166 89.3939 66.8595H89.4282C89.5995 66.4545 89.7481 66.0264 89.8852 65.6098H89.908C90.1708 64.742 90.3764 63.8626 90.6506 63.0063C91.2676 60.8078 91.6331 58.5282 91.8274 56.2487C89.8166 56.2487 87.8059 56.2256 85.7951 56.2603C85.4752 55.7743 85.121 55.2999 84.7783 54.8254C86.8919 54.8139 88.994 54.8139 91.1076 54.8254C91.3932 54.8139 91.6903 54.8717 91.953 54.7329C92.0102 52.9509 92.0102 51.1689 91.8616 49.387C89.8509 49.387 87.8516 49.3291 85.8522 49.387C84.4013 49.4101 82.9503 49.3175 81.4994 49.3291C81.2823 49.3291 81.0424 49.306 80.8368 49.4217C80.494 48.9241 80.1627 48.4266 79.8085 47.9521C83.7729 47.9174 87.7487 47.9521 91.7131 47.929C91.5303 46.1702 91.1876 44.4461 90.7763 42.7335C86.0922 42.7219 81.3966 42.7335 76.7124 42.7219C76.5182 42.7335 76.3011 42.6872 76.1183 42.7798L76.1069 42.8608C75.7756 42.3401 75.3986 41.8425 75.033 41.345C80.1513 41.2987 85.2696 41.3565 90.3879 41.3218C89.9423 39.7134 89.3711 38.1282 88.7084 36.6008C83.2931 36.5892 77.8778 36.6008 72.4739 36.6008C72.2111 36.6008 71.9483 36.5776 71.697 36.6471L71.6513 36.7049C71.3999 36.2883 71.1029 35.8949 70.7944 35.5131C71.5028 35.6056 72.2225 35.5247 72.9308 35.5478C78.0263 35.5478 83.1103 35.5478 88.2057 35.5478C87.703 34.2865 87.0061 33.1294 86.3549 31.9491C83.8186 31.8681 81.2938 31.9954 78.7575 31.9029C78.2205 31.9607 77.695 31.9376 77.158 31.8913C76.3583 31.9607 75.5585 31.9144 74.7588 31.926C73.8448 31.9144 72.9308 31.9607 72.0169 31.8681C71.1372 31.8681 70.2575 31.9839 69.3892 31.9029C69.0007 31.926 68.6123 31.926 68.2124 31.9376C67.664 31.1623 67.1271 30.387 66.5444 29.6349C66.7729 29.6465 66.99 29.658 67.2185 29.658C73.0794 29.6465 78.9517 29.6696 84.8126 29.6465C84.2756 28.6745 83.5216 27.8298 82.8475 26.9388C82.7561 26.7652 82.5619 26.7537 82.3905 26.7652C76.4154 26.7768 70.4517 26.7537 64.4765 26.7768C63.8253 25.8974 63.2884 24.856 62.3515 24.2427C68.3495 24.1964 74.3589 24.2427 80.3684 24.2196C79.6829 23.398 78.8489 22.7269 78.072 21.9979C72.9994 21.9748 67.9382 21.9979 62.8656 21.9863C50.5612 21.9979 38.2567 21.9748 25.9523 21.9979C25.1868 22.7385 24.3414 23.398 23.6445 24.208ZM30.6364 72.703C28.5229 72.9228 26.4207 73.3972 24.4557 74.2188C24.17 74.3577 23.8501 74.3229 23.5531 74.3229C21.8165 74.3229 20.0686 74.3229 18.332 74.3229C18.412 74.6122 18.5948 74.8552 18.7433 75.1098C18.8575 75.1329 18.9718 75.1676 19.0974 75.1792C20.8911 75.2486 22.6848 75.0519 24.4785 75.1908C25.0497 75.1445 25.621 75.1098 26.1808 75.1792C27.3233 75.2371 28.4772 75.1098 29.6196 75.1792C30.4536 75.0751 31.2876 75.2024 32.1217 75.1445C32.7729 75.2024 33.4241 75.0866 34.0753 75.1445C34.6808 75.1214 35.2863 75.1792 35.9032 75.1329C36.2803 75.1561 36.6573 75.2139 37.0457 75.1561C37.5827 75.0751 38.1196 75.1792 38.6452 75.1792C41.7641 75.0982 44.8831 75.1445 48.0135 75.1445C48.9275 75.0866 49.8414 75.1676 50.7554 75.1445C51.7494 75.0519 52.7433 75.2024 53.7373 75.1098C56.205 75.1561 58.6842 75.0751 61.1634 75.1329C61.9631 75.0404 62.7628 75.2139 63.5626 75.1214C64.5108 75.2024 65.4705 75.1561 66.4187 75.1214C66.91 75.2139 67.4127 75.0866 67.904 75.1561C68.8179 75.2139 69.7319 75.0751 70.6459 75.1445C71.3657 75.0635 72.0854 75.2371 72.8052 75.1329C73.7191 75.1676 74.6331 75.1445 75.5471 75.1676C76.2669 75.1792 76.9981 75.0519 77.7178 75.1329C78.0948 75.1908 78.4833 75.1445 78.8603 75.1214C79.3173 75.1445 79.7743 75.1908 80.2313 75.1561C80.8025 75.0866 81.3737 75.2255 81.945 75.1561C82.5162 75.0635 83.0874 75.2255 83.6587 75.1561C84.2071 75.0635 84.7555 75.2834 85.2924 75.0866C85.4295 74.8205 85.6694 74.6006 85.6923 74.2882C70.9658 74.3114 56.2393 74.2882 41.5014 74.2998C41.0787 74.3461 40.7245 74.1031 40.3475 73.9758C38.2567 73.2005 36.0518 72.7261 33.8354 72.6335C32.75 72.4831 31.6875 72.6798 30.6364 72.703ZM57.5646 77.8869C56.6277 77.9332 55.6909 77.8869 54.7427 77.91C43.4322 77.91 32.1217 77.8984 20.8112 77.9216C20.9825 78.2109 21.1882 78.4654 21.4167 78.72C41.8098 78.7316 62.1916 78.7316 82.5848 78.72C82.8132 78.4654 83.0417 78.2224 83.1903 77.91C80.5626 77.8985 77.9349 77.91 75.3072 77.91C75.033 77.8985 74.7474 77.9447 74.4846 77.8637C72.451 77.019 70.2917 76.4752 68.1096 76.2901C64.5222 75.9082 60.8777 76.533 57.5646 77.8869Z" fill="#0093D8"/>
</g>
<path id="Vector_35" d="M59.907 41.3565C60.3982 41.3565 60.8895 41.345 61.3808 41.345C61.7121 41.7962 62.0091 42.2707 62.3519 42.7219C61.8606 42.7335 61.3693 42.7335 60.8781 42.7451C60.5468 42.2707 60.2383 41.8078 59.907 41.3565Z" fill="#0093D8"/>
<path id="Vector_36" d="M50.1958 47.9521C50.6871 47.9405 51.1783 47.929 51.6696 47.929C51.9895 48.4034 52.3322 48.8778 52.675 49.3291C52.1837 49.3291 51.6924 49.2828 51.2126 49.3985C50.8699 48.9241 50.5385 48.4381 50.1958 47.9521Z" fill="#0093D8"/>
<path id="Vector_37" d="M64.6365 47.9405C65.1392 47.9405 65.6419 47.9405 66.1445 47.929C66.453 48.3918 66.7843 48.8199 67.0928 49.2828C66.613 49.3175 66.1445 49.3291 65.6647 49.3406C65.322 48.8778 64.9792 48.4034 64.6365 47.9405Z" fill="#0093D8"/>
<path id="Vector_38" d="M27.6092 64.4526C27.8834 64.8345 28.1576 65.2048 28.3861 65.6213C27.8948 65.6213 27.4036 65.6213 26.9123 65.6213C26.6838 65.2395 26.4324 64.8692 26.1697 64.5105C26.6495 64.4642 27.1294 64.4642 27.6092 64.4526Z" fill="#0093D8"/>
<path id="Vector_39" d="M38.554 64.7768C38.9424 64.4412 39.4794 64.3949 39.9592 64.4528C39.8107 64.5569 39.0338 65.0429 38.8053 65.1933C38.7253 65.0545 38.6454 64.9156 38.554 64.7768Z" fill="#0093D8"/>
<path id="Vector_40" d="M62.7515 64.5221C63.1056 64.2791 63.6197 64.5568 63.9396 64.7535C64.0082 65.0775 64.1681 65.3552 64.3509 65.6214H64.2824C64.111 65.5057 63.9396 65.3784 63.7683 65.2511C63.4941 65.0428 63.197 64.8577 62.9114 64.6725L62.7515 64.5221Z" fill="#0093D8"/>
<path id="Vector_41" d="M76.6323 64.4989C77.1007 64.4642 77.5692 64.4526 78.0376 64.4526C78.3232 64.8229 78.5974 65.1932 78.803 65.6098C78.3346 65.6098 77.8548 65.6098 77.3864 65.6098C77.1236 65.2511 76.8608 64.8923 76.6323 64.4989Z" fill="#0093D8"/>
<path id="Vector_42" d="M40.2566 64.6492C40.3252 64.6376 40.4851 64.6261 40.5537 64.6145C40.5994 64.6955 40.6679 64.8575 40.7136 64.9385C40.4508 65.1236 40.1995 65.3088 39.9367 65.4939L39.7768 65.5865C39.514 65.6212 39.2398 65.6212 38.9771 65.6212L39.057 65.4708C39.4112 65.2162 39.7768 64.9732 40.1424 64.7302C40.1652 64.7071 40.2223 64.6724 40.2566 64.6492Z" fill="#0093D8"/>
<path id="Vector_43" d="M39.2849 82.6194C40.5759 82.631 41.8669 82.631 43.1693 82.6194C43.1465 84.2162 43.1579 85.8015 43.1693 87.3983C42.4153 87.3983 41.6613 87.3983 40.9072 87.3983C40.3817 85.8015 39.7876 84.2278 39.2849 82.6194Z" fill="#0093D8"/>
<path id="Vector_44" d="M71.1604 82.6196C72.0402 82.6196 72.9313 82.6659 73.811 82.5964C73.3083 82.7353 72.817 82.9204 72.3715 83.1981C71.9259 83.4643 71.5832 83.8577 71.1604 84.1586C71.1376 83.6494 71.1376 83.1287 71.1604 82.6196Z" fill="#0093D8"/>
<path id="Vector_45" d="M30.0422 82.7235C30.4535 82.5962 30.8877 82.6425 31.3104 82.6425C32.51 82.6541 33.6982 82.6193 34.8978 82.6656C34.7378 83.302 34.475 83.9153 34.2694 84.5402C34.0866 85.0262 33.9724 85.5469 33.721 86.0097C33.4011 85.3386 33.0926 84.6212 32.5557 84.0889C31.893 83.3715 30.9562 83.0128 30.0422 82.7235Z" fill="#0093D8"/>
<path id="Vector_46" d="M47.1914 82.6194C47.7284 82.631 48.2539 82.631 48.7909 82.6194C48.8023 83.4641 48.8823 84.3088 48.7452 85.1419C48.2196 84.3204 47.6712 83.4988 47.1914 82.6194Z" fill="#0093D8"/>
<path id="Vector_47" d="M53.3717 82.6194C53.6231 82.6194 53.8744 82.6194 54.1258 82.631C54.2971 82.9318 54.5713 83.1748 54.7198 83.4988C54.3543 84.8063 53.9087 86.1023 53.486 87.3983L53.2917 87.757C53.2917 87.757 53.3489 86.0908 53.3374 85.4659C53.3489 84.5171 53.326 83.5682 53.3717 82.6194Z" fill="#0093D8"/>
<path id="Vector_48" d="M59.9183 82.6194C60.2496 82.6194 60.5924 82.631 60.9351 82.6194C60.958 84.2278 60.958 85.8362 60.9351 87.4446C60.8894 87.4214 60.9237 87.838 60.8894 87.8149C60.421 86.461 59.8498 84.6559 59.4385 83.2789C59.5984 83.0707 59.7698 82.8508 59.9183 82.6194Z" fill="#0093D8"/>
<path id="Vector_49" d="M65.002 82.6194C65.5275 82.631 66.0645 82.631 66.59 82.6194C66.59 83.4641 66.6128 84.3088 66.5786 85.1535C66.0073 84.3435 65.4704 83.4988 65.002 82.6194Z" fill="#0093D8"/>
<path id="Vector_50" d="M41.1817 88.22C41.8443 88.2084 42.4955 88.22 43.1581 88.22C43.1353 89.7705 43.1581 91.3211 43.1353 92.8716C43.1467 93.0568 43.1124 93.265 43.2038 93.4386C43.7294 93.5427 44.2663 93.4733 44.7919 93.4849C45.6944 93.4733 46.597 93.5196 47.4995 93.4502C47.5224 92.6286 47.4653 91.7955 47.5452 90.9739C48.1622 91.7261 48.5735 92.6402 49.1676 93.4039C49.5103 93.5427 49.8987 93.4733 50.2643 93.4849C52.1837 93.4502 54.1145 93.5312 56.0338 93.4386C56.1252 93.0683 56.1938 92.6749 56.3537 92.3278C56.845 92.2005 57.3477 92.2699 57.8504 92.3278C57.9646 92.698 58.0789 93.0683 58.1931 93.4386C59.3584 93.5427 60.5238 93.4617 61.6891 93.4849C62.8887 93.4617 64.0997 93.5427 65.2993 93.4386C65.345 92.6286 65.185 91.8071 65.3907 91.0202C65.882 91.7261 66.3047 92.4551 66.7731 93.184C66.8645 93.3229 66.9673 93.4965 67.173 93.4733C67.7442 93.5196 68.3154 93.4733 68.8867 93.4849C69.6293 93.4733 70.3833 93.5312 71.1145 93.427C71.1145 92.9642 71.1259 92.4898 71.1373 92.0269C71.64 92.4319 72.097 92.8948 72.6911 93.1725C73.9021 93.7742 75.3188 93.7742 76.6098 93.427C77.5466 93.4849 78.4835 93.5196 79.4089 93.4386C71.7429 98.7614 62.5231 101.781 53.2233 101.978C51.8524 101.955 50.4814 102.048 49.1104 101.909C41.1131 101.469 33.23 98.9465 26.4209 94.6652C25.8382 94.2833 25.2213 93.9362 24.6843 93.4965C25.7011 93.4617 26.7179 93.4849 27.7462 93.4733C28.8886 93.4733 30.0654 93.508 31.1622 93.1262C31.1736 93.2072 31.2079 93.3692 31.2307 93.4502C32.0419 93.5196 32.8644 93.4733 33.6756 93.4849C34.4182 93.4733 35.1722 93.5312 35.9149 93.4386C36.0177 93.0683 36.0976 92.698 36.269 92.3509C36.7946 92.2005 37.3544 92.2931 37.8799 92.3278C38.0056 92.698 38.0399 93.1262 38.2683 93.4502C38.7939 93.5427 39.3194 93.4733 39.8564 93.4965C40.8846 93.4849 41.9243 93.5312 42.9525 93.4617C42.4155 91.6914 41.7872 89.9557 41.1817 88.22Z" fill="#0093D8"/>
</g>
<g id="Group_6">
<g id="Group_7">
<path id="Vector_51" d="M51.1095 54.5015C51.7151 54.5015 52.3091 54.5015 52.9146 54.5015C52.9718 55.2073 52.8918 55.9247 52.9604 56.6421C53.6915 57.1744 66.0645 64.7767 66.83 65.2627C66.8871 65.4247 66.6586 65.4131 66.5672 65.4478C65.7789 65.0197 53.8172 57.5331 53.0175 57.1281C54.0571 57.8571 64.5679 64.7883 65.6304 65.4941C65.619 65.5867 65.2191 65.552 65.162 65.5635C64.1223 64.9156 54.0914 58.1695 53.0175 57.5794C54.2171 58.4588 63.0941 64.7536 64.2937 65.633C64.3394 65.7834 63.5054 65.471 63.5511 65.6214C62.2601 64.742 54.2399 58.7944 52.9261 57.9381C54.7083 59.3845 60.832 64.1403 62.6485 65.5635C62.6485 65.6677 62.1001 65.6214 62.0316 65.5751C60.2036 64.175 54.7655 59.7201 52.9146 58.3662C55.6223 60.8078 58.3757 63.1914 61.0948 65.6214C61.4032 65.6214 61.7231 65.633 62.0316 65.5867C62.2372 65.552 62.4429 65.5288 62.6485 65.5751C62.9456 65.6445 63.254 65.6445 63.5625 65.633L63.4597 65.5404C63.4597 65.5404 64.0309 65.6445 64.2937 65.633H64.3622C64.5679 65.633 64.7621 65.6214 64.9678 65.5983L65.1506 65.5635C65.3105 65.5288 65.459 65.5057 65.619 65.4941C65.916 65.6793 66.2702 65.6214 66.6015 65.6445L66.5672 65.4594C66.6586 65.39 66.7386 65.3321 66.83 65.2743L66.9328 65.3321C67.1613 65.4594 67.3898 65.6561 67.664 65.633C70.9086 65.633 74.1533 65.633 77.3979 65.633C77.8663 65.633 78.3461 65.633 78.8146 65.633C82.4933 65.6445 86.1835 65.6214 89.8623 65.6445C89.7252 66.0727 89.5881 66.4892 89.4053 66.8942H89.371C87.9086 66.9521 86.4691 67.2992 85.0753 67.6926C84.5726 67.8662 84.0471 67.9819 83.6015 68.2828C83.5558 69.3242 83.6015 70.3772 83.5787 71.4302C83.4073 71.4302 83.2359 71.4302 83.0646 71.4302C82.619 71.4302 82.1849 71.4302 81.7393 71.4302C81.7164 70.8053 81.7279 70.1689 81.7279 69.544C81.7279 69.1159 81.7279 68.6762 81.7279 68.2481C81.3508 68.0629 80.9853 67.8546 80.5854 67.7158C79.9342 67.4496 79.2601 67.2761 78.5746 67.1488C77.0551 66.8364 75.4899 66.8595 73.9476 66.9289C72.4395 67.0794 70.9086 67.3802 69.5491 68.0861C69.412 68.1671 69.1949 68.2596 69.2406 68.4679C69.2292 69.4515 69.252 70.4466 69.2292 71.4302C69.035 71.4302 68.8407 71.4302 68.6465 71.4302C68.2238 71.4302 67.8011 71.4302 67.3784 71.4302C67.3784 70.84 67.3784 70.2615 67.3784 69.6713C67.3784 68.6762 67.3784 67.6926 67.3784 66.6975C66.6586 66.6975 65.9503 66.6975 65.2305 66.6975C64.7278 66.6975 64.2366 66.6975 63.7339 66.6975C61.3347 66.6975 58.9241 66.6975 56.5249 66.6975C56.5249 67.3339 56.5363 67.9704 56.5134 68.6183C56.045 69.0465 55.588 69.4978 55.1425 69.949C55.1539 70.4466 55.1539 70.9326 55.1425 71.4302C53.0517 71.4302 50.9724 71.4302 48.8817 71.4302C48.8589 70.9326 48.9274 70.4235 48.8474 69.9259C48.4361 69.4515 47.9563 69.0349 47.5107 68.5836C47.4993 67.9472 47.5107 67.3224 47.4993 66.686C45.6828 66.6975 43.8663 66.686 42.0611 66.686C41.3757 66.686 40.6787 66.686 39.9933 66.686C38.8851 66.686 37.7769 66.686 36.6572 66.686C36.6458 68.2596 36.6572 69.8449 36.6458 71.4186C36.0289 71.4186 35.4119 71.4186 34.8064 71.4186C34.7836 70.354 34.8293 69.2895 34.7836 68.2249C33.1384 67.3339 31.2762 66.9521 29.4254 66.8942C28.9341 66.8827 28.4428 66.8711 27.9402 66.8827C26.5578 66.8942 25.1754 67.1141 23.8615 67.5422C23.336 67.7274 22.7876 67.9241 22.3192 68.2481C22.1935 69.2895 22.3078 70.3656 22.2621 71.4186C21.6451 71.4186 21.0282 71.4186 20.4227 71.407C20.4227 70.354 20.4227 69.301 20.4227 68.2481C19.383 67.7505 18.2634 67.4728 17.1438 67.2298C16.3212 67.0678 15.4872 66.9058 14.6418 66.8827H14.6075C14.4361 66.4661 14.299 66.0495 14.1733 65.633C18.4233 65.6214 22.6734 65.633 26.9234 65.6214C27.4146 65.6214 27.9059 65.6214 28.3971 65.6214C30.9791 65.6214 33.5497 65.6098 36.1317 65.6214C36.8286 65.6908 37.9025 64.8114 37.9025 64.8114C37.9025 64.8114 37.9825 64.8461 38.0396 64.9156C38.1196 64.9156 38.1767 65.0197 38.1767 65.0197C38.1767 65.0197 37.5598 65.4131 37.2628 65.6214C37.6398 65.5983 38.0853 65.7255 38.4167 65.4825C38.5537 65.39 38.8165 65.2048 38.8165 65.2048L39.0564 65.471L38.9765 65.6214C39.2392 65.6214 39.5134 65.6214 39.7762 65.5867L39.9361 65.4941C40.4503 65.5983 40.8387 65.5867 41.3528 65.5983C43.2379 64.1287 45.1116 62.6476 46.9852 61.1781C48.3448 60.0788 49.7614 59.049 51.0867 57.9034C48.1734 59.9515 43.3521 63.5039 40.4388 65.5751C40.3017 65.5867 39.9019 65.6445 39.9247 65.4941C42.7695 63.4576 48.162 59.6275 50.9724 57.5678C49.5672 58.4125 48.2191 59.3498 46.8481 60.2524C45.8427 60.9235 40.0275 64.7651 39.0336 65.471C38.9765 65.4015 38.7822 65.3205 38.7937 65.2048C40.4845 64.1403 47.168 59.6622 48.836 58.563C49.5786 58.0423 50.3669 57.5794 51.0981 57.0471C48.6418 58.4935 40.5759 63.5386 38.1425 65.0197C38.1082 64.9503 37.9025 64.8808 37.8568 64.8114C40.256 63.3187 48.4476 58.2621 50.8468 56.781C50.9724 56.7116 51.0867 56.5959 51.0638 56.4339C51.121 55.7859 51.0981 55.1495 51.1095 54.5015ZM46.5739 61.9302C45.0544 63.1683 43.5007 64.337 42.0154 65.6098C42.3696 65.5751 42.8152 65.7487 43.1122 65.471C44.7802 64.0014 46.4482 62.5203 48.1163 61.0508C49.0988 60.1598 50.127 59.3035 51.0867 58.3894C49.5558 59.5234 48.082 60.7499 46.5739 61.9302ZM48.8246 60.8425C47.4536 62.0806 46.0827 63.3187 44.7231 64.5568C44.3575 64.8924 43.9348 65.1933 43.6492 65.6098C43.9462 65.6098 44.2318 65.6098 44.5289 65.6098C46.7681 63.3303 49.0074 61.0508 51.2238 58.7481C50.3784 59.3961 49.6243 60.1482 48.8246 60.8425ZM52.9146 58.8407C53.4173 59.4192 53.9657 59.9515 54.4913 60.5069C56.1593 62.2195 57.8044 63.9436 59.4953 65.633C59.7695 65.633 60.0551 65.6445 60.3293 65.5983C60.2722 65.4478 60.1579 65.3553 60.0551 65.2627C57.6788 63.122 55.3367 60.9235 52.9146 58.8407ZM45.8313 64.8693C45.6142 65.1007 45.3629 65.309 45.2144 65.5983C45.5 65.6098 45.797 65.6098 46.0827 65.6214C47.8306 63.4576 49.6015 61.2938 51.3152 59.1068C49.453 60.9813 47.6707 62.96 45.8313 64.8693ZM52.6862 59.1184C54.4227 61.2938 56.1707 63.4576 57.9187 65.6214C58.2272 65.6214 58.5242 65.6214 58.8327 65.6098C58.1129 64.7651 57.3132 63.9783 56.5591 63.1452C55.2453 61.826 54.0457 60.3912 52.6862 59.1184ZM46.9966 65.2396C46.9281 65.3553 46.8595 65.471 46.8138 65.6098C47.0995 65.6214 47.3851 65.6214 47.6821 65.6214C48.7103 63.9899 49.7043 62.3352 50.7211 60.7036C50.961 60.2871 51.2466 59.9052 51.418 59.4539C49.9442 61.3863 48.4704 63.3072 46.9966 65.2396ZM52.5719 59.4424C52.6747 59.6507 52.7776 59.8474 52.8918 60.0441C54.0229 61.907 55.1768 63.7584 56.3192 65.6214C56.6277 65.633 56.9362 65.633 57.2561 65.633C57.0276 65.2048 56.6962 64.8577 56.422 64.4643C55.1311 62.7865 53.8743 61.0971 52.5719 59.4424ZM50.2184 62.1616C49.6015 63.3187 48.8931 64.4296 48.3333 65.6214C48.6418 65.6214 48.9503 65.6214 49.2702 65.6214C49.9442 63.9436 50.6183 62.2657 51.2923 60.5879C51.3837 60.3565 51.4637 60.1251 51.5208 59.8821C51.0524 60.6111 50.664 61.3979 50.2184 62.1616ZM52.4691 59.8821C53.166 61.8145 53.9886 63.7006 54.7312 65.6098C55.0397 65.6098 55.3595 65.6098 55.668 65.6098C55.4738 65.147 55.1996 64.7188 54.9711 64.2791C54.2628 63.0063 53.5544 61.7219 52.8347 60.4375C52.7204 60.2524 52.629 60.0441 52.4691 59.8821ZM51.7379 60.0788C51.2695 61.502 50.7896 62.9137 50.3098 64.3254C50.1727 64.7536 50.0013 65.1701 49.9214 65.6098C51.3152 65.6098 52.709 65.6098 54.1028 65.6098C53.4973 63.7584 52.869 61.907 52.252 60.0672C52.0921 60.0672 51.9207 60.0788 51.7379 60.0788ZM49.0645 66.3157C49.0531 66.6628 49.0645 67.0099 49.0874 67.3571C49.6929 67.3455 50.2984 67.3455 50.9039 67.3571C50.9267 67.0099 50.9267 66.6628 50.9267 66.3272C50.3098 66.3041 49.6814 66.3157 49.0645 66.3157ZM53.086 66.3157C53.086 66.6397 53.086 66.9637 53.0746 67.2877C53.6801 67.4149 54.3085 67.3108 54.914 67.3571C54.9483 67.0099 54.9483 66.6628 54.9368 66.3157C54.3199 66.3157 53.703 66.3041 53.086 66.3157Z" fill="#EC7E24"/>
</g>
</g>
<g id="Group_8">
<path id="Vector_52" d="M43.8317 61.5021C46.2652 60.0094 48.6643 58.482 51.1207 57.0356C50.3895 57.5679 41.2383 63.5965 40.2786 64.2445C40.2215 64.1635 40.0729 63.9552 40.0044 63.8742C41.2611 63.0527 42.575 62.3121 43.8317 61.5021Z" fill="#0154A5"/>
</g>
<g id="Group_9">
<path id="Vector_53" d="M53.0061 57.1165C53.8058 57.533 54.537 58.0537 55.3253 58.4819C55.5995 58.6439 55.8623 58.8406 56.1365 59.0026C57.2675 59.6968 58.3872 60.4142 59.5182 61.0969C59.8038 61.2589 59.998 61.5482 60.1237 61.8491C58.8213 60.9697 57.496 60.1134 56.1822 59.234C55.1197 58.5397 54.0458 57.8454 53.0061 57.1165Z" fill="#0A4DA1"/>
<g id="Group_10">
<path id="Vector_54" d="M33.3325 79.3679C34.8291 79.3564 36.3144 79.3679 37.811 79.3679C37.9367 79.6572 38.0623 79.9465 38.1537 80.2473C38.348 81.0573 38.6336 81.8442 38.9306 82.6194C39.022 82.6194 39.1934 82.631 39.2848 82.631C39.7989 84.2278 40.3816 85.8131 40.9071 87.4099C40.9985 87.6876 41.0899 87.9653 41.1927 88.2315C41.7982 89.9672 42.4266 91.7029 42.9864 93.4617C41.9582 93.5311 40.93 93.4848 39.8903 93.4964C39.3648 93.4848 38.8278 93.5427 38.3023 93.4501C38.0623 93.1261 38.0395 92.698 37.9138 92.3277C37.3769 92.3046 36.817 92.2004 36.3029 92.3508C36.143 92.698 36.063 93.0798 35.9488 93.4385C35.2062 93.5311 34.4635 93.4732 33.7095 93.4848C32.8984 93.4732 32.0758 93.5195 31.2646 93.4501C31.2532 93.3691 31.2189 93.2071 31.1961 93.1261C30.0993 93.5195 28.9225 93.4848 27.7801 93.4733C26.7633 93.4848 25.7465 93.4617 24.7182 93.4964C24.6725 93.4964 24.5697 93.4964 24.524 93.4964V93.3807C24.524 92.0384 24.524 90.6962 24.524 89.3655C24.3298 89.3308 24.1242 89.3076 23.9299 89.2845C23.9528 88.3125 23.9071 87.3289 23.9528 86.357C24.1356 86.357 24.3298 86.3454 24.5126 86.3454C24.5126 85.1188 24.5012 83.8807 24.524 82.6542C24.7297 82.6426 24.9467 82.631 25.1524 82.6194C28.6598 82.5847 32.1786 82.6773 35.686 82.6079C35.4004 81.9946 34.9091 81.5202 34.5207 80.9763C34.1208 80.4441 33.6524 79.9581 33.3325 79.3679ZM34.9662 80.2011C35.0919 80.3746 35.229 80.5482 35.3547 80.7218C35.8117 81.3235 36.3029 81.9136 36.7371 82.5385H36.6914C37.1369 82.5153 37.5825 82.5269 38.0166 82.5269C37.9481 82.3417 37.3769 80.6408 37.2169 80.1779C37.0684 80.1779 36.9199 80.1895 36.7713 80.2011C36.3829 80.1895 36.0059 80.1895 35.6289 80.2011C35.4118 80.2011 35.1947 80.2011 34.9662 80.2011ZM30.0422 82.7236C30.9561 83.0244 31.893 83.3716 32.567 84.089C33.104 84.6213 33.401 85.3387 33.7324 86.0098C33.9837 85.547 34.098 85.0263 34.2808 84.5403C34.4864 83.9154 34.7377 83.3021 34.9091 82.6657C33.7209 82.6194 32.5213 82.6542 31.3217 82.6426C30.8876 82.6426 30.4535 82.5963 30.0422 82.7236ZM25.3466 83.4641C25.3466 84.7023 25.3466 85.9288 25.3466 87.1669C25.1638 87.2017 24.9125 87.0859 24.7754 87.2595C24.7525 87.6414 24.7754 88.0348 24.7639 88.4282C24.9582 88.4629 25.1524 88.4976 25.3466 88.5208C25.3352 89.8746 25.358 91.2284 25.3352 92.5823C26.6033 92.6401 27.8715 92.5938 29.1396 92.6054C30.225 92.6401 31.3674 92.3161 32.1329 91.5061C32.9212 90.7193 33.2183 89.5622 33.2297 88.4745C33.264 87.1438 32.8984 85.7552 32.0301 84.737C31.2875 83.9501 30.2021 83.5567 29.1396 83.4526C27.8829 83.4526 26.6147 83.4526 25.3466 83.4641ZM32.3614 92.5938C33.3439 92.617 34.3265 92.6054 35.3204 92.6054C35.4347 92.2236 35.5603 91.8417 35.6631 91.4483C36.6228 91.4251 37.5825 91.4367 38.5422 91.4483C38.645 91.8417 38.7593 92.2236 38.8735 92.6054C39.856 92.6054 40.8386 92.6054 41.8211 92.6054C40.7814 89.5506 39.7304 86.5074 38.6679 83.4641C37.6282 83.4641 36.5771 83.4641 35.5375 83.4641C34.4864 86.5074 33.4239 89.5506 32.3614 92.5938Z" fill="#0A4DA1"/>
</g>
<g id="Group_11">
<path id="Vector_55" d="M60.2033 79.6109C60.3747 79.4837 60.5575 79.3332 60.7974 79.3564C61.6314 79.3564 62.4654 79.3564 63.2994 79.3679C63.1623 80.2126 63.0138 81.1268 62.3511 81.7285C61.997 81.902 61.6542 82.1219 61.2544 82.1798C60.8545 82.226 60.4546 82.1913 60.0662 82.1913C60.0205 82.3418 59.9748 82.4806 59.9177 82.631C59.7691 82.8625 59.5978 83.0823 59.4264 83.2906C59.8377 84.656 60.2947 86.0214 60.7631 87.3752C60.8088 87.5257 60.8431 87.6645 60.8774 87.8265C60.923 87.8381 60.9459 84.2394 60.923 82.631C62.2826 82.6195 63.6421 82.6195 65.0017 82.631C65.4587 83.5104 66.0071 84.3551 66.5783 85.1536C66.6126 84.3089 66.5897 83.4642 66.5897 82.6195C68.1092 82.6079 69.6287 82.6079 71.1482 82.6195C71.1253 83.1286 71.1253 83.6377 71.1596 84.1584C71.5709 83.846 71.9251 83.4642 72.3706 83.198C72.8162 82.9203 73.3075 82.7352 73.8102 82.5963C74.6784 82.4459 75.5696 82.4459 76.4379 82.6079C77.8659 82.955 79.2483 83.8692 79.8082 85.304C80.0366 85.8363 80.0823 86.4148 80.0709 86.9818C80.0595 88.9836 80.0709 90.9739 80.0709 92.9757C80.0595 93.1146 80.0481 93.265 80.0481 93.4038C79.8424 93.4154 79.6482 93.4154 79.454 93.4385C78.5172 93.5195 77.5803 93.4848 76.6549 93.427C75.3753 93.7741 73.9473 93.7741 72.7362 93.1724C72.1421 92.8947 71.6852 92.4319 71.1825 92.0269C71.1596 92.4897 71.1596 92.9641 71.1596 93.427C70.417 93.5311 69.6744 93.4733 68.9318 93.4848C68.3606 93.4733 67.7893 93.5195 67.2181 93.4733C67.0239 93.4848 66.921 93.3228 66.8182 93.184C66.3612 92.4666 65.9271 91.726 65.4358 91.0202C65.2302 91.807 65.3901 92.6286 65.3444 93.4385C64.1448 93.5427 62.9338 93.4617 61.7342 93.4848C60.5689 93.4617 59.3921 93.5427 58.2382 93.4385C58.124 93.0683 58.0097 92.698 57.8955 92.3277C57.4042 92.2814 56.8901 92.2004 56.3989 92.3277C56.2275 92.6748 56.1704 93.0683 56.079 93.4385C54.1596 93.5311 52.2288 93.4501 50.3095 93.4848C49.9439 93.4733 49.5554 93.5311 49.2127 93.4038C48.6186 92.6401 48.2073 91.726 47.5904 90.9739C47.5218 91.7954 47.5675 92.6286 47.5447 93.4501C46.6421 93.508 45.7396 93.4617 44.837 93.4848C44.3115 93.4733 43.7631 93.5311 43.249 93.4385C43.1576 93.265 43.1918 93.0567 43.1804 92.8716C43.2033 91.321 43.169 89.7705 43.2033 88.2199C43.2033 87.9422 43.2033 87.6761 43.2033 87.3984C43.1918 85.8015 43.1804 84.2163 43.2033 82.6195C44.5514 82.6079 45.8881 82.6079 47.2362 82.6195C47.7046 83.4873 48.2644 84.3089 48.8014 85.142C48.9385 84.3089 48.8585 83.4642 48.8471 82.6195C50.378 82.6079 51.8975 82.6079 53.417 82.6195C53.3599 83.5683 53.3941 84.5171 53.3941 85.466C53.4056 86.0908 53.3484 87.7571 53.3484 87.7571C53.3484 87.7571 54.4224 84.8064 54.7765 83.4989C54.628 83.1749 54.3538 82.9319 54.1825 82.631C54.0911 82.3302 54.0225 82.0178 53.9654 81.7053C53.954 81.4276 53.9654 81.1499 53.9768 80.8606C54.7308 80.8838 55.4849 80.8143 56.2389 80.8838C56.3646 80.9995 56.4674 81.1383 56.5702 81.2656C56.753 80.5366 57.21 79.8771 57.9069 79.5878C58.6038 79.2175 59.4378 79.4489 60.2033 79.6109ZM61.1058 80.2011C61.0716 80.2589 61.003 80.3746 60.9687 80.4441C60.1119 80.7796 59.255 79.9928 58.3868 80.3052C57.8726 80.4556 57.3814 80.9069 57.3928 81.4739C57.7241 81.4623 58.0554 81.4623 58.3868 81.4508C58.6267 81.2888 58.8894 81.0921 59.1979 81.1499C59.9177 81.2656 60.6489 81.5202 61.3686 81.3003C61.8485 81.1499 62.1798 80.6986 62.2712 80.2011C61.8827 80.2011 61.4943 80.2011 61.1058 80.2011ZM54.7537 81.7053C54.788 82.1913 55.0507 82.6426 55.4734 82.8856C56.1247 83.3022 56.9244 83.279 57.6556 83.198C58.3982 83.0476 59.2436 82.55 59.3007 81.7053C58.958 81.7053 58.6153 81.7053 58.2839 81.7169C57.7241 82.5963 56.2846 82.55 55.7134 81.7169C55.3935 81.7053 55.0736 81.7053 54.7537 81.7053ZM72.5534 84.0774C71.0454 85.1651 70.5541 87.2132 70.8169 88.9952C70.9997 90.1523 71.5366 91.3094 72.4849 92.0269C73.5702 92.8484 75.0555 93.0104 76.3236 92.6054C76.7349 92.4897 76.9977 92.1079 77.3975 91.969C77.4432 92.1889 77.4775 92.3971 77.5232 92.617C78.0944 92.617 78.6771 92.6286 79.2483 92.6054C79.2369 90.9507 79.2483 89.2845 79.2483 87.6298C78.003 87.6182 76.7463 87.6182 75.501 87.6298C75.501 88.2431 75.501 88.8563 75.501 89.4581C75.9237 89.4581 76.3579 89.458 76.7806 89.4696C76.5635 90.5805 74.9755 90.9392 74.2215 90.1639C73.7759 89.6895 73.6159 89.0068 73.5588 88.3704C73.5245 87.6414 73.6274 86.8777 74.0158 86.2528C74.3243 85.7437 74.9412 85.3965 75.5353 85.5701C76.0494 85.709 76.3922 86.1718 76.5521 86.6578C77.409 86.6578 78.2658 86.6694 79.1227 86.6578C79.1569 86.6347 79.2141 86.5768 79.2483 86.5421C79.1912 85.1651 78.1059 84.0774 76.8948 83.6146C75.4896 83.0823 73.7873 83.1749 72.5534 84.0774ZM43.9687 83.4642C43.9573 86.5074 43.9802 89.5391 43.9573 92.5823C44.8713 92.6286 45.7738 92.6054 46.6878 92.5938C46.6764 91.0664 46.6764 89.539 46.6878 88.0116C47.7046 89.5159 48.6415 91.078 49.624 92.6054C50.5837 92.6054 51.5433 92.617 52.5144 92.6054C52.503 89.5622 52.5144 86.5074 52.5144 83.4642C51.5662 83.4642 50.6065 83.4642 49.6583 83.4642C49.6354 85.0031 49.6697 86.5421 49.6354 88.0811C49.3269 87.7339 49.1213 87.3058 48.8585 86.924C48.1273 85.7668 47.419 84.5981 46.665 83.4526C45.7738 83.4757 44.8713 83.441 43.9687 83.4642ZM52.7087 92.5938C53.6112 92.617 54.5138 92.6054 55.4049 92.6054C55.5077 92.212 55.5991 91.8301 55.7134 91.4367C56.6273 91.4367 57.5299 91.4483 58.4439 91.4252C58.5924 91.807 58.7066 92.1889 58.8095 92.5823C59.7349 92.6054 60.6489 92.5939 61.5743 92.5823C60.5575 89.5391 59.5978 86.4727 58.5467 83.4294C57.5756 83.4526 56.6045 83.4294 55.6334 83.4526C54.6737 86.519 53.6912 89.5622 52.7087 92.5938ZM61.7685 92.6054C62.6825 92.6054 63.585 92.6286 64.499 92.5938C64.4876 91.0664 64.4876 89.539 64.499 88.0116C65.5044 89.5275 66.4526 91.0896 67.4466 92.617C68.4063 92.6054 69.3659 92.6401 70.3256 92.5938C70.3028 89.5506 70.3256 86.5074 70.3142 83.4642C69.3545 83.4642 68.3948 83.4526 67.4466 83.4642C67.4466 84.9916 67.4809 86.519 67.4237 88.0464C67.1495 87.7687 66.9667 87.3984 66.7497 87.0744C65.9842 85.871 65.2416 84.656 64.4647 83.4526C63.5622 83.4526 62.6596 83.4526 61.7685 83.4526C61.7571 86.5074 61.7799 89.5506 61.7685 92.6054ZM74.7813 86.7735C75.044 86.7851 75.3182 86.7967 75.581 86.762C75.661 86.2297 74.7584 86.2644 74.7813 86.7735ZM74.37 88.1274C74.4042 88.4514 74.3471 88.8795 74.6327 89.0993C74.6784 88.4166 74.6899 87.7224 74.6327 87.0397C74.3585 87.3174 74.3928 87.7571 74.37 88.1274Z" fill="#0A4DA1"/>
</g>
<g id="Group_12">
<path id="Vector_56" d="M28.0544 85.6626C28.7056 85.6511 29.4711 85.6395 29.9623 86.1486C30.4193 86.5999 30.4993 87.2942 30.4993 87.9074C30.5107 88.6249 30.4307 89.4117 29.9281 89.9787C29.4482 90.4763 28.7056 90.4762 28.0658 90.511C28.043 89.8514 28.0658 89.1918 28.043 88.5323C28.4543 88.405 28.877 88.486 29.2997 88.4397C29.2883 88.0232 29.2883 87.6066 29.2883 87.19C28.877 87.1785 28.4657 87.1785 28.043 87.1669C28.0658 86.6578 28.0658 86.1602 28.0544 85.6626ZM28.9455 89.3307C28.7513 89.4811 29.0255 89.7126 29.174 89.5506C29.4139 89.4001 29.1055 89.1456 28.9455 89.3307Z" fill="#0A4DA1"/>
</g>
<path id="Vector_57" d="M37.1257 86.7156C37.3313 87.0743 37.3884 87.4908 37.5141 87.8727C37.6626 88.4397 37.8683 88.9835 37.9482 89.5621C37.3884 89.5621 36.8286 89.5621 36.2688 89.5621C36.5201 88.6017 36.8172 87.6644 37.1257 86.7156Z" fill="#0A4DA1"/>
<path id="Vector_58" d="M57.1075 86.7156C57.4616 87.6297 57.6901 88.6017 57.93 89.5505C57.3931 89.5621 56.8675 89.5621 56.3306 89.5505C56.4905 88.5901 56.8333 87.6528 57.1075 86.7156Z" fill="#0A4DA1"/>
</g>
<g id="Group_13">
<path id="Vector_59" d="M53.0059 57.5679C54.0684 58.1696 55.0623 58.8986 56.102 59.5465C57.5643 60.5532 59.0495 61.5252 60.5233 62.4972C60.9232 62.7518 61.1517 63.1683 61.3916 63.5618C59.815 62.4162 58.227 61.2938 56.6389 60.1714C55.4279 59.3035 54.2055 58.4473 53.0059 57.5679Z" fill="#0154A6"/>
</g>
<g id="Group_14">
<path id="Vector_60" d="M64.3507 65.6213C64.1679 65.3551 63.9966 65.0774 63.9395 64.7534C64.3279 65.0311 64.7506 65.2741 65.1505 65.5518L64.9677 65.5865C64.7506 65.6097 64.5564 65.6213 64.3507 65.6213Z" fill="#135FA4"/>
</g>
<g id="Group_15">
<path id="Vector_61" d="M61.1058 80.2012C61.4943 80.2012 61.8827 80.2012 62.2711 80.2012C62.1797 80.6987 61.8598 81.1384 61.3686 81.3004C60.6488 81.5203 59.9062 81.2657 59.1979 81.15C58.8894 81.0922 58.6266 81.2889 58.3867 81.4509C58.0554 81.4624 57.7241 81.4624 57.3928 81.474C57.3813 80.8954 57.8726 80.4557 58.3867 80.3053C59.2436 79.9929 60.1119 80.7797 60.9687 80.4442C61.0144 80.3863 61.0715 80.259 61.1058 80.2012Z" fill="#F3801F"/>
<path id="Vector_62" d="M34.9666 80.2012C34.9666 80.2012 36.8402 80.1665 37.2287 80.1896C37.3772 80.4557 38.0284 82.5386 38.0284 82.5386H36.7374L34.9666 80.2012Z" fill="#F3801F"/>
<path id="Vector_63" d="M54.7539 81.7054C55.0738 81.7054 55.3937 81.7054 55.7022 81.7054C56.2734 82.5501 57.7129 82.5964 58.2727 81.7054C58.6155 81.6939 58.9582 81.6938 59.2895 81.6938C59.2324 82.5501 58.3984 83.0361 57.6444 83.1865C56.9132 83.2675 56.102 83.2907 55.4622 82.8741C55.0509 82.6543 54.7882 82.1914 54.7539 81.7054Z" fill="#F3801F"/>
<path id="Vector_64" d="M72.5534 84.0774C73.7873 83.1749 75.4896 83.0823 76.8834 83.6146C78.0944 84.0774 79.1798 85.1651 79.2369 86.5421C79.2026 86.5652 79.1455 86.6231 79.1112 86.6578C78.2544 86.6694 77.3975 86.6578 76.5407 86.6578C76.3693 86.1718 76.038 85.6974 75.5239 85.5701C74.9298 85.3965 74.3128 85.7437 74.0044 86.2528C73.6159 86.8776 73.5131 87.6413 73.5474 88.3703C73.6045 89.0067 73.753 89.6894 74.21 90.1639C74.9526 90.9507 76.5521 90.5804 76.7692 89.4696C76.3465 89.458 75.9123 89.4696 75.4896 89.458C75.4896 88.8448 75.4896 88.2315 75.4896 87.6298C76.7349 87.6066 77.9802 87.6182 79.2369 87.6298C79.2369 89.2845 79.2255 90.9507 79.2369 92.6054C78.6657 92.6401 78.083 92.617 77.5118 92.617C77.4661 92.3971 77.4204 92.1888 77.3861 91.969C76.9862 92.1078 76.7235 92.4897 76.3122 92.6054C75.044 93.0104 73.5588 92.86 72.4735 92.0268C71.5252 91.3094 70.9997 90.1523 70.8055 88.9952C70.5541 87.2248 71.0454 85.1651 72.5534 84.0774Z" fill="#F3801F"/>
<g id="Group_16">
<path id="Vector_65" d="M25.3466 83.4641C26.6147 83.4641 27.8714 83.4526 29.1396 83.4641C30.2021 83.5683 31.276 83.9617 32.0301 84.7485C32.8983 85.7668 33.2639 87.1553 33.2297 88.486C33.2182 89.5737 32.9326 90.7309 32.1329 91.5177C31.3674 92.3277 30.2249 92.6517 29.1396 92.617C27.8714 92.5938 26.6033 92.6517 25.3352 92.5938C25.358 91.24 25.3352 89.8862 25.3466 88.5323C25.1524 88.4976 24.9581 88.4629 24.7639 88.4398C24.7753 88.0463 24.7525 87.6645 24.7753 87.2711C24.9124 87.0975 25.1524 87.2016 25.3466 87.1785C25.3466 85.9288 25.3466 84.6907 25.3466 83.4641ZM28.0542 85.6627C28.0542 86.1602 28.0542 86.6578 28.0542 87.1553C28.4655 87.1669 28.8768 87.1669 29.2995 87.1785C29.2995 87.5951 29.2995 88.0116 29.311 88.4282C28.8882 88.4745 28.4655 88.405 28.0542 88.5207C28.0771 89.1803 28.0542 89.8399 28.0771 90.4994C28.7169 90.4647 29.4595 90.4647 29.9393 89.9671C30.4306 89.4117 30.522 88.6133 30.5106 87.8959C30.5106 87.2826 30.442 86.5884 29.9736 86.1371C29.4709 85.6395 28.7169 85.6511 28.0542 85.6627Z" fill="#F3801F"/>
</g>
<g id="Group_17">
<path id="Vector_66" d="M32.3611 92.5938C33.4236 89.5506 34.4861 86.5074 35.5372 83.4641C36.5768 83.4526 37.6279 83.4641 38.6675 83.4641C39.7186 86.5074 40.7697 89.5622 41.8208 92.6054C40.8382 92.617 39.8557 92.6054 38.8732 92.6054C38.7589 92.2235 38.6447 91.8301 38.5419 91.4483C37.5822 91.4367 36.6225 91.4367 35.6628 91.4483C35.56 91.8301 35.4343 92.212 35.3201 92.6054C34.3261 92.6054 33.3436 92.6285 32.3611 92.5938ZM37.1252 86.7156C36.8167 87.6645 36.5083 88.6017 36.2683 89.5622C36.8282 89.5506 37.388 89.5622 37.9478 89.5622C37.8678 88.9836 37.6622 88.4397 37.5136 87.8728C37.388 87.4909 37.3308 87.0743 37.1252 86.7156Z" fill="#F3801F"/>
</g>
<path id="Vector_67" d="M43.9689 83.4642C44.8715 83.4411 45.7741 83.4758 46.6652 83.4526C47.4192 84.5982 48.1275 85.7669 48.8587 86.924C49.1101 87.3059 49.3271 87.734 49.6356 88.0811C49.6699 86.5422 49.6356 85.0032 49.6585 83.4642C50.6067 83.4642 51.5664 83.4642 52.5147 83.4642C52.5147 86.5074 52.5032 89.5622 52.5147 92.6055C51.555 92.617 50.5953 92.617 49.6242 92.6055C48.6417 91.0781 47.7048 89.516 46.688 88.0117C46.6766 89.5391 46.6766 91.0665 46.688 92.5939C45.7741 92.617 44.8601 92.6286 43.9575 92.5823C43.9804 89.5507 43.9689 86.5074 43.9689 83.4642Z" fill="#F3801F"/>
<g id="Group_18">
<path id="Vector_68" d="M52.7087 92.5937C53.6913 89.5505 54.6738 86.5073 55.6449 83.4641C56.616 83.4409 57.5871 83.4756 58.5582 83.4409C59.6093 86.4726 60.569 89.5389 61.5858 92.5937C60.6604 92.6053 59.7464 92.6169 58.821 92.5937C58.7182 92.2003 58.6039 91.8069 58.4554 91.4366C57.5414 91.4598 56.6389 91.4482 55.7249 91.4482C55.6106 91.8301 55.5078 92.2235 55.4164 92.6169C54.5024 92.6053 53.5999 92.6169 52.7087 92.5937ZM57.1073 86.7156C56.8331 87.6528 56.4903 88.5901 56.3304 89.5621C56.8673 89.5737 57.3929 89.5737 57.9299 89.5621C57.7014 88.6017 57.4614 87.6297 57.1073 86.7156Z" fill="#F3801F"/>
</g>
<path id="Vector_69" d="M61.7686 92.6056C61.78 89.5624 61.7571 86.5076 61.78 83.4644C62.6825 83.4644 63.5851 83.4644 64.4762 83.4644C65.2417 84.6678 65.9957 85.8827 66.7612 87.0861C66.9782 87.4101 67.1496 87.7804 67.4352 88.0581C67.4809 86.5307 67.4467 85.0033 67.4581 83.4759C68.4178 83.4644 69.3774 83.4644 70.3257 83.4759C70.3257 86.5192 70.3143 89.5624 70.3371 92.6056C69.3774 92.6519 68.4178 92.6172 67.4581 92.6288C66.4641 91.1014 65.5273 89.5392 64.5105 88.0234C64.4991 89.5508 64.4991 91.0782 64.5105 92.6056C63.5851 92.6288 62.6825 92.6056 61.7686 92.6056Z" fill="#F3801F"/>
</g>
<g id="Group_19">
<path id="Vector_70" d="M74.7814 86.7737C74.7699 86.2646 75.6611 86.2299 75.5811 86.7621C75.3183 86.7853 75.0441 86.7853 74.7814 86.7737Z" fill="#0188CF"/>
</g>
<g id="Group_20">
<path id="Vector_71" d="M74.3701 88.1272C74.393 87.757 74.3587 87.3173 74.6329 87.0396C74.69 87.7222 74.69 88.4165 74.6329 89.0992C74.3473 88.8794 74.4044 88.4512 74.3701 88.1272Z" fill="#0185CD"/>
</g>
<g id="Group_21">
<path id="Vector_72" d="M28.9458 89.3309C29.0943 89.1458 29.4028 89.4119 29.1743 89.5508C29.0258 89.7128 28.7516 89.4813 28.9458 89.3309Z" fill="#0A4DA1"/>
</g>
</g>
</svg>
